<mxfile host="app.diagrams.net" agent="Mozilla/5.0 (Windows NT 10.0; Win64; x64) AppleWebKit/537.36 (KHTML, like Gecko) Chrome/138.0.0.0 Safari/537.36" version="28.0.7">
  <diagram name="Page-1" id="ky1FVQS-6FzWh6XWGgZN">
    <mxGraphModel dx="7957" dy="3885" grid="1" gridSize="10" guides="1" tooltips="1" connect="1" arrows="1" fold="1" page="1" pageScale="1" pageWidth="827" pageHeight="1169" math="0" shadow="0">
      <root>
        <mxCell id="0" />
        <mxCell id="1" parent="0" />
        <mxCell id="YQWz01tPMp9xfPWSl0EE-1" value="ทบทวนสัญลักษณ์" style="swimlane;fontFamily=Sarabun;fontSource=https%3A%2F%2Ffonts.googleapis.com%2Fcss%3Ffamily%3DSarabun;" vertex="1" parent="1">
          <mxGeometry x="-720" y="20" width="640" height="290" as="geometry" />
        </mxCell>
        <mxCell id="YQWz01tPMp9xfPWSl0EE-2" value="&lt;font data-font-src=&quot;https://fonts.googleapis.com/css?family=Sarabun&quot; face=&quot;Sarabun&quot;&gt;เริ่มต้น&lt;/font&gt;" style="ellipse;whiteSpace=wrap;html=1;" vertex="1" parent="YQWz01tPMp9xfPWSl0EE-1">
          <mxGeometry x="20" y="40" width="130" height="30" as="geometry" />
        </mxCell>
        <mxCell id="YQWz01tPMp9xfPWSl0EE-3" value="" style="endArrow=classic;html=1;rounded=0;" edge="1" parent="YQWz01tPMp9xfPWSl0EE-1">
          <mxGeometry width="50" height="50" relative="1" as="geometry">
            <mxPoint x="84.5" y="70" as="sourcePoint" />
            <mxPoint x="84.5" y="120" as="targetPoint" />
          </mxGeometry>
        </mxCell>
        <mxCell id="YQWz01tPMp9xfPWSl0EE-4" value="&lt;font face=&quot;Sarabun&quot;&gt;สิ้นสุด&lt;/font&gt;" style="ellipse;whiteSpace=wrap;html=1;" vertex="1" parent="YQWz01tPMp9xfPWSl0EE-1">
          <mxGeometry x="150" y="90" width="130" height="30" as="geometry" />
        </mxCell>
        <mxCell id="YQWz01tPMp9xfPWSl0EE-5" value="" style="endArrow=classic;html=1;rounded=0;" edge="1" parent="YQWz01tPMp9xfPWSl0EE-1">
          <mxGeometry width="50" height="50" relative="1" as="geometry">
            <mxPoint x="214.5" y="40" as="sourcePoint" />
            <mxPoint x="214.5" y="90" as="targetPoint" />
          </mxGeometry>
        </mxCell>
        <mxCell id="YQWz01tPMp9xfPWSl0EE-6" value="กระบวนการ" style="rounded=0;whiteSpace=wrap;html=1;fontFamily=Sarabun;fontSource=https%3A%2F%2Ffonts.googleapis.com%2Fcss%3Ffamily%3DSarabun;" vertex="1" parent="YQWz01tPMp9xfPWSl0EE-1">
          <mxGeometry x="320" y="70" width="120" height="30" as="geometry" />
        </mxCell>
        <mxCell id="YQWz01tPMp9xfPWSl0EE-7" value="" style="endArrow=classic;html=1;rounded=0;" edge="1" parent="YQWz01tPMp9xfPWSl0EE-1">
          <mxGeometry width="50" height="50" relative="1" as="geometry">
            <mxPoint x="379" y="40" as="sourcePoint" />
            <mxPoint x="379.5" y="70" as="targetPoint" />
          </mxGeometry>
        </mxCell>
        <mxCell id="YQWz01tPMp9xfPWSl0EE-8" value="" style="endArrow=classic;html=1;rounded=0;" edge="1" parent="YQWz01tPMp9xfPWSl0EE-1">
          <mxGeometry width="50" height="50" relative="1" as="geometry">
            <mxPoint x="379.75" y="100" as="sourcePoint" />
            <mxPoint x="380.25" y="130" as="targetPoint" />
          </mxGeometry>
        </mxCell>
        <mxCell id="YQWz01tPMp9xfPWSl0EE-9" value="ประโยคเงื่อนไข" style="rhombus;whiteSpace=wrap;html=1;fontFamily=Sarabun;fontSource=https%3A%2F%2Ffonts.googleapis.com%2Fcss%3Ffamily%3DSarabun;" vertex="1" parent="YQWz01tPMp9xfPWSl0EE-1">
          <mxGeometry x="490" y="60" width="100" height="60" as="geometry" />
        </mxCell>
        <mxCell id="YQWz01tPMp9xfPWSl0EE-10" value="" style="endArrow=classic;html=1;rounded=0;" edge="1" parent="YQWz01tPMp9xfPWSl0EE-1">
          <mxGeometry width="50" height="50" relative="1" as="geometry">
            <mxPoint x="539.71" y="30" as="sourcePoint" />
            <mxPoint x="540.21" y="60" as="targetPoint" />
          </mxGeometry>
        </mxCell>
        <mxCell id="YQWz01tPMp9xfPWSl0EE-11" value="" style="endArrow=classic;html=1;rounded=0;" edge="1" parent="YQWz01tPMp9xfPWSl0EE-1">
          <mxGeometry width="50" height="50" relative="1" as="geometry">
            <mxPoint x="539.71" y="120" as="sourcePoint" />
            <mxPoint x="540" y="175" as="targetPoint" />
          </mxGeometry>
        </mxCell>
        <mxCell id="YQWz01tPMp9xfPWSl0EE-12" value="จริง" style="edgeLabel;html=1;align=center;verticalAlign=middle;resizable=0;points=[];fontFamily=Sarabun;fontSource=https%3A%2F%2Ffonts.googleapis.com%2Fcss%3Ffamily%3DSarabun;" vertex="1" connectable="0" parent="YQWz01tPMp9xfPWSl0EE-11">
          <mxGeometry x="-0.4142" y="-1" relative="1" as="geometry">
            <mxPoint as="offset" />
          </mxGeometry>
        </mxCell>
        <mxCell id="YQWz01tPMp9xfPWSl0EE-13" value="" style="endArrow=classic;html=1;rounded=0;exitX=1;exitY=0.5;exitDx=0;exitDy=0;" edge="1" parent="YQWz01tPMp9xfPWSl0EE-1" source="YQWz01tPMp9xfPWSl0EE-9">
          <mxGeometry width="50" height="50" relative="1" as="geometry">
            <mxPoint x="620" y="95" as="sourcePoint" />
            <mxPoint x="610" y="175" as="targetPoint" />
            <Array as="points">
              <mxPoint x="610" y="90" />
            </Array>
          </mxGeometry>
        </mxCell>
        <mxCell id="YQWz01tPMp9xfPWSl0EE-14" value="&lt;font data-font-src=&quot;https://fonts.googleapis.com/css?family=Sarabun&quot; face=&quot;Sarabun&quot;&gt;เท็จ&lt;/font&gt;" style="edgeLabel;html=1;align=center;verticalAlign=middle;resizable=0;points=[];" vertex="1" connectable="0" parent="YQWz01tPMp9xfPWSl0EE-13">
          <mxGeometry x="-0.0019" y="-2" relative="1" as="geometry">
            <mxPoint as="offset" />
          </mxGeometry>
        </mxCell>
        <mxCell id="YQWz01tPMp9xfPWSl0EE-15" value="&lt;font data-font-src=&quot;https://fonts.googleapis.com/css?family=Sarabun&quot; face=&quot;Sarabun&quot;&gt;ฟังก์ชัน/โมดูล&lt;/font&gt;" style="shape=process;whiteSpace=wrap;html=1;backgroundOutline=1;" vertex="1" parent="YQWz01tPMp9xfPWSl0EE-1">
          <mxGeometry x="25" y="180" width="120" height="30" as="geometry" />
        </mxCell>
        <mxCell id="YQWz01tPMp9xfPWSl0EE-16" value="" style="endArrow=classic;html=1;rounded=0;" edge="1" parent="YQWz01tPMp9xfPWSl0EE-1">
          <mxGeometry width="50" height="50" relative="1" as="geometry">
            <mxPoint x="84.70999999999998" y="150" as="sourcePoint" />
            <mxPoint x="85.20999999999998" y="180" as="targetPoint" />
          </mxGeometry>
        </mxCell>
        <mxCell id="YQWz01tPMp9xfPWSl0EE-17" value="" style="endArrow=classic;html=1;rounded=0;" edge="1" parent="YQWz01tPMp9xfPWSl0EE-1">
          <mxGeometry width="50" height="50" relative="1" as="geometry">
            <mxPoint x="84.70999999999998" y="210" as="sourcePoint" />
            <mxPoint x="85.20999999999998" y="240" as="targetPoint" />
          </mxGeometry>
        </mxCell>
        <mxCell id="YQWz01tPMp9xfPWSl0EE-18" value="" style="strokeWidth=2;html=1;shape=mxgraph.flowchart.start_2;whiteSpace=wrap;" vertex="1" parent="YQWz01tPMp9xfPWSl0EE-1">
          <mxGeometry x="205" y="185" width="20" height="20" as="geometry" />
        </mxCell>
        <mxCell id="YQWz01tPMp9xfPWSl0EE-19" value="" style="endArrow=classic;html=1;rounded=0;" edge="1" parent="YQWz01tPMp9xfPWSl0EE-1">
          <mxGeometry width="50" height="50" relative="1" as="geometry">
            <mxPoint x="214.70999999999998" y="155" as="sourcePoint" />
            <mxPoint x="215.20999999999998" y="185" as="targetPoint" />
          </mxGeometry>
        </mxCell>
        <mxCell id="YQWz01tPMp9xfPWSl0EE-20" value="" style="endArrow=classic;html=1;rounded=0;entryX=0;entryY=0.5;entryDx=0;entryDy=0;entryPerimeter=0;" edge="1" parent="YQWz01tPMp9xfPWSl0EE-1" target="YQWz01tPMp9xfPWSl0EE-18">
          <mxGeometry width="50" height="50" relative="1" as="geometry">
            <mxPoint x="189.99999999999997" y="155" as="sourcePoint" />
            <mxPoint x="190.49999999999997" y="185" as="targetPoint" />
            <Array as="points">
              <mxPoint x="190" y="180" />
            </Array>
          </mxGeometry>
        </mxCell>
        <mxCell id="YQWz01tPMp9xfPWSl0EE-21" value="" style="endArrow=classic;html=1;rounded=0;entryX=1;entryY=0.5;entryDx=0;entryDy=0;entryPerimeter=0;" edge="1" parent="YQWz01tPMp9xfPWSl0EE-1" target="YQWz01tPMp9xfPWSl0EE-18">
          <mxGeometry width="50" height="50" relative="1" as="geometry">
            <mxPoint x="239.99999999999997" y="155" as="sourcePoint" />
            <mxPoint x="240.49999999999997" y="185" as="targetPoint" />
            <Array as="points">
              <mxPoint x="240" y="180" />
            </Array>
          </mxGeometry>
        </mxCell>
        <mxCell id="YQWz01tPMp9xfPWSl0EE-22" value="" style="endArrow=classic;html=1;rounded=0;" edge="1" parent="YQWz01tPMp9xfPWSl0EE-1">
          <mxGeometry width="50" height="50" relative="1" as="geometry">
            <mxPoint x="214.70999999999998" y="205" as="sourcePoint" />
            <mxPoint x="215.20999999999998" y="235" as="targetPoint" />
          </mxGeometry>
        </mxCell>
        <mxCell id="YQWz01tPMp9xfPWSl0EE-23" value="&lt;font data-font-src=&quot;https://fonts.googleapis.com/css?family=Sarabun&quot; face=&quot;Sarabun&quot;&gt;ตัวเชื่อม&lt;/font&gt;" style="text;html=1;align=center;verticalAlign=middle;resizable=0;points=[];autosize=1;strokeColor=none;fillColor=none;" vertex="1" parent="YQWz01tPMp9xfPWSl0EE-1">
          <mxGeometry x="220" y="190" width="60" height="30" as="geometry" />
        </mxCell>
        <mxCell id="YQWz01tPMp9xfPWSl0EE-24" value="" style="endArrow=classic;html=1;rounded=0;" edge="1" parent="YQWz01tPMp9xfPWSl0EE-1">
          <mxGeometry width="50" height="50" relative="1" as="geometry">
            <mxPoint x="353.71" y="165" as="sourcePoint" />
            <mxPoint x="354.21" y="195" as="targetPoint" />
          </mxGeometry>
        </mxCell>
        <mxCell id="YQWz01tPMp9xfPWSl0EE-25" value="" style="verticalLabelPosition=bottom;verticalAlign=top;html=1;shape=offPageConnector;rounded=0;size=0.5;" vertex="1" parent="YQWz01tPMp9xfPWSl0EE-1">
          <mxGeometry x="339" y="195" width="30" height="30" as="geometry" />
        </mxCell>
        <mxCell id="YQWz01tPMp9xfPWSl0EE-26" value="" style="endArrow=classic;html=1;rounded=0;" edge="1" parent="YQWz01tPMp9xfPWSl0EE-1">
          <mxGeometry width="50" height="50" relative="1" as="geometry">
            <mxPoint x="405.71" y="195" as="sourcePoint" />
            <mxPoint x="406.21" y="225" as="targetPoint" />
          </mxGeometry>
        </mxCell>
        <mxCell id="YQWz01tPMp9xfPWSl0EE-27" value="" style="verticalLabelPosition=bottom;verticalAlign=top;html=1;shape=offPageConnector;rounded=0;size=0.5;" vertex="1" parent="YQWz01tPMp9xfPWSl0EE-1">
          <mxGeometry x="391" y="165" width="30" height="30" as="geometry" />
        </mxCell>
        <mxCell id="YQWz01tPMp9xfPWSl0EE-28" value="หน้าต่อไป" style="text;html=1;align=center;verticalAlign=middle;resizable=0;points=[];autosize=1;strokeColor=none;fillColor=none;fontFamily=Sarabun;fontSource=https%3A%2F%2Ffonts.googleapis.com%2Fcss%3Ffamily%3DSarabun;" vertex="1" parent="YQWz01tPMp9xfPWSl0EE-1">
          <mxGeometry x="345" y="220" width="70" height="30" as="geometry" />
        </mxCell>
        <mxCell id="YQWz01tPMp9xfPWSl0EE-29" value="ก" style="text;html=1;align=center;verticalAlign=middle;resizable=0;points=[];autosize=1;strokeColor=none;fillColor=none;fontFamily=Sarabun;fontSource=https%3A%2F%2Ffonts.googleapis.com%2Fcss%3Ffamily%3DSarabun;" vertex="1" parent="YQWz01tPMp9xfPWSl0EE-1">
          <mxGeometry x="339" y="190" width="30" height="30" as="geometry" />
        </mxCell>
        <mxCell id="YQWz01tPMp9xfPWSl0EE-30" value="ก" style="text;html=1;align=center;verticalAlign=middle;resizable=0;points=[];autosize=1;strokeColor=none;fillColor=none;fontFamily=Sarabun;fontSource=https%3A%2F%2Ffonts.googleapis.com%2Fcss%3Ffamily%3DSarabun;" vertex="1" parent="YQWz01tPMp9xfPWSl0EE-1">
          <mxGeometry x="391" y="160" width="30" height="30" as="geometry" />
        </mxCell>
        <mxCell id="YQWz01tPMp9xfPWSl0EE-31" value="แสดงผล/รับค่า" style="shape=parallelogram;perimeter=parallelogramPerimeter;whiteSpace=wrap;html=1;fixedSize=1;fontFamily=Sarabun;fontSource=https%3A%2F%2Ffonts.googleapis.com%2Fcss%3Ffamily%3DSarabun;" vertex="1" parent="YQWz01tPMp9xfPWSl0EE-1">
          <mxGeometry x="450" y="210" width="120" height="30" as="geometry" />
        </mxCell>
        <mxCell id="YQWz01tPMp9xfPWSl0EE-32" value="" style="endArrow=classic;html=1;rounded=0;" edge="1" parent="YQWz01tPMp9xfPWSl0EE-1">
          <mxGeometry width="50" height="50" relative="1" as="geometry">
            <mxPoint x="509.71" y="180" as="sourcePoint" />
            <mxPoint x="510.21" y="210" as="targetPoint" />
          </mxGeometry>
        </mxCell>
        <mxCell id="YQWz01tPMp9xfPWSl0EE-33" value="" style="endArrow=classic;html=1;rounded=0;" edge="1" parent="YQWz01tPMp9xfPWSl0EE-1">
          <mxGeometry width="50" height="50" relative="1" as="geometry">
            <mxPoint x="509.71" y="240" as="sourcePoint" />
            <mxPoint x="510.21" y="270" as="targetPoint" />
          </mxGeometry>
        </mxCell>
        <mxCell id="YQWz01tPMp9xfPWSl0EE-34" value="แก้ไขโจทย์ปัญหา" style="swimlane;fontFamily=Sarabun;fontSource=https%3A%2F%2Ffonts.googleapis.com%2Fcss%3Ffamily%3DSarabun;" vertex="1" parent="1">
          <mxGeometry x="-720" y="639" width="4110" height="2230" as="geometry" />
        </mxCell>
        <mxCell id="YQWz01tPMp9xfPWSl0EE-73" style="edgeStyle=orthogonalEdgeStyle;rounded=0;orthogonalLoop=1;jettySize=auto;html=1;" edge="1" parent="YQWz01tPMp9xfPWSl0EE-34" source="YQWz01tPMp9xfPWSl0EE-74" target="YQWz01tPMp9xfPWSl0EE-76">
          <mxGeometry relative="1" as="geometry" />
        </mxCell>
        <mxCell id="YQWz01tPMp9xfPWSl0EE-74" value="&lt;font data-font-src=&quot;https://fonts.googleapis.com/css?family=Sarabun&quot; face=&quot;Sarabun&quot;&gt;เริ่มต้น&lt;/font&gt;" style="ellipse;whiteSpace=wrap;html=1;" vertex="1" parent="YQWz01tPMp9xfPWSl0EE-34">
          <mxGeometry x="565.75" y="122" width="130" height="30" as="geometry" />
        </mxCell>
        <mxCell id="YQWz01tPMp9xfPWSl0EE-75" style="edgeStyle=orthogonalEdgeStyle;rounded=0;orthogonalLoop=1;jettySize=auto;html=1;" edge="1" parent="YQWz01tPMp9xfPWSl0EE-34" source="YQWz01tPMp9xfPWSl0EE-76" target="YQWz01tPMp9xfPWSl0EE-78">
          <mxGeometry relative="1" as="geometry" />
        </mxCell>
        <mxCell id="YQWz01tPMp9xfPWSl0EE-76" value="กำหนดราคา โค้ก = 10, น้ำเขียว = 12 อเมริกาโน่ = 30, ลาเต้นหวานเจี๊ยบ = 35, เมล็ดทานตะวัน = 13, ถั่วแปบ = 20, จิ้นส้มหมก = 15" style="rounded=0;whiteSpace=wrap;html=1;fontFamily=Sarabun;fontSource=https%3A%2F%2Ffonts.googleapis.com%2Fcss%3Ffamily%3DSarabun;" vertex="1" parent="YQWz01tPMp9xfPWSl0EE-34">
          <mxGeometry x="485.75" y="177" width="290" height="50" as="geometry" />
        </mxCell>
        <mxCell id="YQWz01tPMp9xfPWSl0EE-77" style="edgeStyle=orthogonalEdgeStyle;rounded=0;orthogonalLoop=1;jettySize=auto;html=1;entryX=0.5;entryY=0;entryDx=0;entryDy=0;" edge="1" parent="YQWz01tPMp9xfPWSl0EE-34" source="YQWz01tPMp9xfPWSl0EE-78" target="YQWz01tPMp9xfPWSl0EE-80">
          <mxGeometry relative="1" as="geometry" />
        </mxCell>
        <mxCell id="YQWz01tPMp9xfPWSl0EE-78" value="กำหนดปริมาณ โค้ก = 20, น้ำเขียว = 20 อเมริกาโน่ = 20, ลาเต้นหวานเจี๊ยบ = 20, เมล็ดทานตะวัน = 20, ถั่วแปบ = 20, จิ้นส้มหมก = 20" style="rounded=0;whiteSpace=wrap;html=1;fontFamily=Sarabun;fontSource=https%3A%2F%2Ffonts.googleapis.com%2Fcss%3Ffamily%3DSarabun;" vertex="1" parent="YQWz01tPMp9xfPWSl0EE-34">
          <mxGeometry x="485.75" y="242" width="290" height="50" as="geometry" />
        </mxCell>
        <mxCell id="YQWz01tPMp9xfPWSl0EE-79" style="edgeStyle=orthogonalEdgeStyle;rounded=0;orthogonalLoop=1;jettySize=auto;html=1;" edge="1" parent="YQWz01tPMp9xfPWSl0EE-34" source="YQWz01tPMp9xfPWSl0EE-80" target="YQWz01tPMp9xfPWSl0EE-84">
          <mxGeometry relative="1" as="geometry" />
        </mxCell>
        <mxCell id="YQWz01tPMp9xfPWSl0EE-80" value="กำหนดวันหมดอายุ โค้ก = 30, น้ำเขียว = 3&lt;span style=&quot;background-color: transparent; color: light-dark(rgb(0, 0, 0), rgb(255, 255, 255));&quot;&gt;0 อเมริกาโน่ = 30, ลาเต้นหวานเจี๊ยบ = 10, เมล็ดทานตะวัน = 10, ถั่วแปบ = 5, จิ้นส้มหมก = 5&lt;/span&gt;" style="rounded=0;whiteSpace=wrap;html=1;fontFamily=Sarabun;fontSource=https%3A%2F%2Ffonts.googleapis.com%2Fcss%3Ffamily%3DSarabun;" vertex="1" parent="YQWz01tPMp9xfPWSl0EE-34">
          <mxGeometry x="485.75" y="307" width="290" height="50" as="geometry" />
        </mxCell>
        <mxCell id="YQWz01tPMp9xfPWSl0EE-81" style="edgeStyle=orthogonalEdgeStyle;rounded=0;orthogonalLoop=1;jettySize=auto;html=1;entryX=0.5;entryY=0;entryDx=0;entryDy=0;" edge="1" parent="YQWz01tPMp9xfPWSl0EE-34" source="YQWz01tPMp9xfPWSl0EE-82" target="YQWz01tPMp9xfPWSl0EE-86">
          <mxGeometry relative="1" as="geometry" />
        </mxCell>
        <mxCell id="YQWz01tPMp9xfPWSl0EE-82" value="แบงค์ 20 = 20, 50 = 20, 100 = 50 , 500 = 10 , 1000 = 0" style="rounded=0;whiteSpace=wrap;html=1;fontFamily=Sarabun;fontSource=https%3A%2F%2Ffonts.googleapis.com%2Fcss%3Ffamily%3DSarabun;" vertex="1" parent="YQWz01tPMp9xfPWSl0EE-34">
          <mxGeometry x="488.8800000000001" y="428" width="283.75" height="30" as="geometry" />
        </mxCell>
        <mxCell id="YQWz01tPMp9xfPWSl0EE-83" style="edgeStyle=orthogonalEdgeStyle;rounded=0;orthogonalLoop=1;jettySize=auto;html=1;" edge="1" parent="YQWz01tPMp9xfPWSl0EE-34" source="YQWz01tPMp9xfPWSl0EE-84" target="YQWz01tPMp9xfPWSl0EE-82">
          <mxGeometry relative="1" as="geometry" />
        </mxCell>
        <mxCell id="YQWz01tPMp9xfPWSl0EE-84" value="เหรียญ 1 = 50, 5 = 50, 10=50" style="rounded=0;whiteSpace=wrap;html=1;fontFamily=Sarabun;fontSource=https%3A%2F%2Ffonts.googleapis.com%2Fcss%3Ffamily%3DSarabun;" vertex="1" parent="YQWz01tPMp9xfPWSl0EE-34">
          <mxGeometry x="528.25" y="377" width="205" height="30" as="geometry" />
        </mxCell>
        <mxCell id="YQWz01tPMp9xfPWSl0EE-85" style="edgeStyle=orthogonalEdgeStyle;rounded=0;orthogonalLoop=1;jettySize=auto;html=1;entryX=0.5;entryY=0;entryDx=0;entryDy=0;" edge="1" parent="YQWz01tPMp9xfPWSl0EE-34" source="YQWz01tPMp9xfPWSl0EE-86" target="YQWz01tPMp9xfPWSl0EE-226">
          <mxGeometry relative="1" as="geometry" />
        </mxCell>
        <mxCell id="YQWz01tPMp9xfPWSl0EE-349" style="edgeStyle=orthogonalEdgeStyle;rounded=0;orthogonalLoop=1;jettySize=auto;html=1;" edge="1" parent="YQWz01tPMp9xfPWSl0EE-34" source="YQWz01tPMp9xfPWSl0EE-86">
          <mxGeometry relative="1" as="geometry">
            <mxPoint x="540" y="492" as="targetPoint" />
          </mxGeometry>
        </mxCell>
        <mxCell id="YQWz01tPMp9xfPWSl0EE-86" value="int a = 0" style="rounded=0;whiteSpace=wrap;html=1;fontFamily=Sarabun;fontSource=https%3A%2F%2Ffonts.googleapis.com%2Fcss%3Ffamily%3DSarabun;" vertex="1" parent="YQWz01tPMp9xfPWSl0EE-34">
          <mxGeometry x="570.75" y="477" width="120" height="30" as="geometry" />
        </mxCell>
        <mxCell id="YQWz01tPMp9xfPWSl0EE-101" style="edgeStyle=orthogonalEdgeStyle;rounded=0;orthogonalLoop=1;jettySize=auto;html=1;entryX=0.5;entryY=0;entryDx=0;entryDy=0;" edge="1" parent="YQWz01tPMp9xfPWSl0EE-34" source="YQWz01tPMp9xfPWSl0EE-102" target="YQWz01tPMp9xfPWSl0EE-180">
          <mxGeometry relative="1" as="geometry" />
        </mxCell>
        <mxCell id="YQWz01tPMp9xfPWSl0EE-102" value="แสดงชื่อ ตะพาบลอย" style="shape=parallelogram;perimeter=parallelogramPerimeter;whiteSpace=wrap;html=1;fixedSize=1;fontFamily=Sarabun;fontSource=https%3A%2F%2Ffonts.googleapis.com%2Fcss%3Ffamily%3DSarabun;" vertex="1" parent="YQWz01tPMp9xfPWSl0EE-34">
          <mxGeometry x="565.75" y="638" width="130" height="30" as="geometry" />
        </mxCell>
        <mxCell id="YQWz01tPMp9xfPWSl0EE-103" style="edgeStyle=orthogonalEdgeStyle;rounded=0;orthogonalLoop=1;jettySize=auto;html=1;entryX=0.5;entryY=0;entryDx=0;entryDy=0;" edge="1" parent="YQWz01tPMp9xfPWSl0EE-34" source="YQWz01tPMp9xfPWSl0EE-105" target="YQWz01tPMp9xfPWSl0EE-107">
          <mxGeometry relative="1" as="geometry" />
        </mxCell>
        <mxCell id="YQWz01tPMp9xfPWSl0EE-104" style="edgeStyle=orthogonalEdgeStyle;rounded=0;orthogonalLoop=1;jettySize=auto;html=1;entryX=0.5;entryY=0;entryDx=0;entryDy=0;" edge="1" parent="YQWz01tPMp9xfPWSl0EE-34" source="YQWz01tPMp9xfPWSl0EE-105" target="YQWz01tPMp9xfPWSl0EE-171">
          <mxGeometry relative="1" as="geometry" />
        </mxCell>
        <mxCell id="YQWz01tPMp9xfPWSl0EE-105" value="เลือกสินค้า" style="rhombus;whiteSpace=wrap;html=1;fontFamily=Sarabun;fontSource=https%3A%2F%2Ffonts.googleapis.com%2Fcss%3Ffamily%3DSarabun;" vertex="1" parent="YQWz01tPMp9xfPWSl0EE-34">
          <mxGeometry x="580.75" y="750" width="100" height="60" as="geometry" />
        </mxCell>
        <mxCell id="YQWz01tPMp9xfPWSl0EE-106" style="edgeStyle=orthogonalEdgeStyle;rounded=0;orthogonalLoop=1;jettySize=auto;html=1;" edge="1" parent="YQWz01tPMp9xfPWSl0EE-34" source="YQWz01tPMp9xfPWSl0EE-107" target="YQWz01tPMp9xfPWSl0EE-110">
          <mxGeometry relative="1" as="geometry" />
        </mxCell>
        <mxCell id="YQWz01tPMp9xfPWSl0EE-107" value="น้ำ" style="rounded=0;whiteSpace=wrap;html=1;fontFamily=Sarabun;fontSource=https%3A%2F%2Ffonts.googleapis.com%2Fcss%3Ffamily%3DSarabun;" vertex="1" parent="YQWz01tPMp9xfPWSl0EE-34">
          <mxGeometry x="284" y="808" width="120" height="30" as="geometry" />
        </mxCell>
        <mxCell id="YQWz01tPMp9xfPWSl0EE-108" style="edgeStyle=orthogonalEdgeStyle;rounded=0;orthogonalLoop=1;jettySize=auto;html=1;" edge="1" parent="YQWz01tPMp9xfPWSl0EE-34" source="YQWz01tPMp9xfPWSl0EE-110" target="YQWz01tPMp9xfPWSl0EE-112">
          <mxGeometry relative="1" as="geometry" />
        </mxCell>
        <mxCell id="YQWz01tPMp9xfPWSl0EE-109" style="edgeStyle=orthogonalEdgeStyle;rounded=0;orthogonalLoop=1;jettySize=auto;html=1;entryX=0;entryY=0.5;entryDx=0;entryDy=0;" edge="1" parent="YQWz01tPMp9xfPWSl0EE-34" source="YQWz01tPMp9xfPWSl0EE-110" target="YQWz01tPMp9xfPWSl0EE-119">
          <mxGeometry relative="1" as="geometry" />
        </mxCell>
        <mxCell id="YQWz01tPMp9xfPWSl0EE-110" value="โค้ก" style="rhombus;whiteSpace=wrap;html=1;fontFamily=Sarabun;fontSource=https%3A%2F%2Ffonts.googleapis.com%2Fcss%3Ffamily%3DSarabun;" vertex="1" parent="YQWz01tPMp9xfPWSl0EE-34">
          <mxGeometry x="20" y="870" width="100" height="60" as="geometry" />
        </mxCell>
        <mxCell id="YQWz01tPMp9xfPWSl0EE-111" style="edgeStyle=orthogonalEdgeStyle;rounded=0;orthogonalLoop=1;jettySize=auto;html=1;" edge="1" parent="YQWz01tPMp9xfPWSl0EE-34" source="YQWz01tPMp9xfPWSl0EE-112" target="YQWz01tPMp9xfPWSl0EE-115">
          <mxGeometry relative="1" as="geometry" />
        </mxCell>
        <mxCell id="YQWz01tPMp9xfPWSl0EE-112" value="น้ำเขียว" style="rhombus;whiteSpace=wrap;html=1;fontFamily=Sarabun;fontSource=https%3A%2F%2Ffonts.googleapis.com%2Fcss%3Ffamily%3DSarabun;" vertex="1" parent="YQWz01tPMp9xfPWSl0EE-34">
          <mxGeometry x="20" y="970" width="100" height="60" as="geometry" />
        </mxCell>
        <mxCell id="YQWz01tPMp9xfPWSl0EE-113" style="edgeStyle=orthogonalEdgeStyle;rounded=0;orthogonalLoop=1;jettySize=auto;html=1;" edge="1" parent="YQWz01tPMp9xfPWSl0EE-34" source="YQWz01tPMp9xfPWSl0EE-115">
          <mxGeometry relative="1" as="geometry">
            <mxPoint x="70" y="1170" as="targetPoint" />
          </mxGeometry>
        </mxCell>
        <mxCell id="YQWz01tPMp9xfPWSl0EE-114" value="" style="edgeStyle=orthogonalEdgeStyle;rounded=0;orthogonalLoop=1;jettySize=auto;html=1;" edge="1" parent="YQWz01tPMp9xfPWSl0EE-34" source="YQWz01tPMp9xfPWSl0EE-115" target="YQWz01tPMp9xfPWSl0EE-130">
          <mxGeometry relative="1" as="geometry" />
        </mxCell>
        <mxCell id="YQWz01tPMp9xfPWSl0EE-115" value="อเมริกาโน่" style="rhombus;whiteSpace=wrap;html=1;fontFamily=Sarabun;fontSource=https%3A%2F%2Ffonts.googleapis.com%2Fcss%3Ffamily%3DSarabun;" vertex="1" parent="YQWz01tPMp9xfPWSl0EE-34">
          <mxGeometry x="20" y="1070" width="100" height="60" as="geometry" />
        </mxCell>
        <mxCell id="YQWz01tPMp9xfPWSl0EE-116" style="edgeStyle=orthogonalEdgeStyle;rounded=0;orthogonalLoop=1;jettySize=auto;html=1;" edge="1" parent="YQWz01tPMp9xfPWSl0EE-34" target="YQWz01tPMp9xfPWSl0EE-135">
          <mxGeometry relative="1" as="geometry">
            <mxPoint x="119.99999999999955" y="1200.0000000000002" as="sourcePoint" />
          </mxGeometry>
        </mxCell>
        <mxCell id="YQWz01tPMp9xfPWSl0EE-117" style="edgeStyle=orthogonalEdgeStyle;rounded=0;orthogonalLoop=1;jettySize=auto;html=1;" edge="1" parent="YQWz01tPMp9xfPWSl0EE-34" source="YQWz01tPMp9xfPWSl0EE-119" target="YQWz01tPMp9xfPWSl0EE-122">
          <mxGeometry relative="1" as="geometry" />
        </mxCell>
        <mxCell id="YQWz01tPMp9xfPWSl0EE-118" style="edgeStyle=orthogonalEdgeStyle;rounded=0;orthogonalLoop=1;jettySize=auto;html=1;" edge="1" parent="YQWz01tPMp9xfPWSl0EE-34" source="YQWz01tPMp9xfPWSl0EE-119">
          <mxGeometry relative="1" as="geometry">
            <mxPoint x="630" y="950" as="targetPoint" />
            <Array as="points">
              <mxPoint x="207" y="950" />
            </Array>
          </mxGeometry>
        </mxCell>
        <mxCell id="YQWz01tPMp9xfPWSl0EE-119" value="มีสินค้าหรือไม่" style="rhombus;whiteSpace=wrap;html=1;fontFamily=Sarabun;fontSource=https%3A%2F%2Ffonts.googleapis.com%2Fcss%3Ffamily%3DSarabun;" vertex="1" parent="YQWz01tPMp9xfPWSl0EE-34">
          <mxGeometry x="157.5" y="870" width="100" height="60" as="geometry" />
        </mxCell>
        <mxCell id="YQWz01tPMp9xfPWSl0EE-120" style="edgeStyle=orthogonalEdgeStyle;rounded=0;orthogonalLoop=1;jettySize=auto;html=1;entryX=0;entryY=0.5;entryDx=0;entryDy=0;" edge="1" parent="YQWz01tPMp9xfPWSl0EE-34" source="YQWz01tPMp9xfPWSl0EE-122" target="YQWz01tPMp9xfPWSl0EE-123">
          <mxGeometry relative="1" as="geometry" />
        </mxCell>
        <mxCell id="YQWz01tPMp9xfPWSl0EE-121" style="edgeStyle=orthogonalEdgeStyle;rounded=0;orthogonalLoop=1;jettySize=auto;html=1;" edge="1" parent="YQWz01tPMp9xfPWSl0EE-34" source="YQWz01tPMp9xfPWSl0EE-122">
          <mxGeometry relative="1" as="geometry">
            <mxPoint x="334" y="950" as="targetPoint" />
          </mxGeometry>
        </mxCell>
        <mxCell id="YQWz01tPMp9xfPWSl0EE-122" value="หมดอายุมั้ย" style="rhombus;whiteSpace=wrap;html=1;fontFamily=Sarabun;fontSource=https%3A%2F%2Ffonts.googleapis.com%2Fcss%3Ffamily%3DSarabun;" vertex="1" parent="YQWz01tPMp9xfPWSl0EE-34">
          <mxGeometry x="284" y="870" width="100" height="60" as="geometry" />
        </mxCell>
        <mxCell id="YQWz01tPMp9xfPWSl0EE-123" value="โค้ก + 1" style="rounded=0;whiteSpace=wrap;html=1;fontFamily=Sarabun;fontSource=https%3A%2F%2Ffonts.googleapis.com%2Fcss%3Ffamily%3DSarabun;" vertex="1" parent="YQWz01tPMp9xfPWSl0EE-34">
          <mxGeometry x="417.5" y="885" width="65" height="30" as="geometry" />
        </mxCell>
        <mxCell id="YQWz01tPMp9xfPWSl0EE-124" style="edgeStyle=orthogonalEdgeStyle;rounded=0;orthogonalLoop=1;jettySize=auto;html=1;entryX=0;entryY=0.5;entryDx=0;entryDy=0;" edge="1" parent="YQWz01tPMp9xfPWSl0EE-34" source="YQWz01tPMp9xfPWSl0EE-125" target="YQWz01tPMp9xfPWSl0EE-128">
          <mxGeometry relative="1" as="geometry" />
        </mxCell>
        <mxCell id="YQWz01tPMp9xfPWSl0EE-125" value="มีสินค้าหรือไม่" style="rhombus;whiteSpace=wrap;html=1;fontFamily=Sarabun;fontSource=https%3A%2F%2Ffonts.googleapis.com%2Fcss%3Ffamily%3DSarabun;" vertex="1" parent="YQWz01tPMp9xfPWSl0EE-34">
          <mxGeometry x="157.5" y="970" width="100" height="60" as="geometry" />
        </mxCell>
        <mxCell id="YQWz01tPMp9xfPWSl0EE-126" style="edgeStyle=orthogonalEdgeStyle;rounded=0;orthogonalLoop=1;jettySize=auto;html=1;" edge="1" parent="YQWz01tPMp9xfPWSl0EE-34" source="YQWz01tPMp9xfPWSl0EE-128" target="YQWz01tPMp9xfPWSl0EE-140">
          <mxGeometry relative="1" as="geometry" />
        </mxCell>
        <mxCell id="YQWz01tPMp9xfPWSl0EE-127" style="edgeStyle=orthogonalEdgeStyle;rounded=0;orthogonalLoop=1;jettySize=auto;html=1;" edge="1" parent="YQWz01tPMp9xfPWSl0EE-34" source="YQWz01tPMp9xfPWSl0EE-128">
          <mxGeometry relative="1" as="geometry">
            <mxPoint x="334" y="1050" as="targetPoint" />
          </mxGeometry>
        </mxCell>
        <mxCell id="YQWz01tPMp9xfPWSl0EE-128" value="หมดอายุมั้ย" style="rhombus;whiteSpace=wrap;html=1;fontFamily=Sarabun;fontSource=https%3A%2F%2Ffonts.googleapis.com%2Fcss%3Ffamily%3DSarabun;" vertex="1" parent="YQWz01tPMp9xfPWSl0EE-34">
          <mxGeometry x="284" y="970" width="100" height="60" as="geometry" />
        </mxCell>
        <mxCell id="YQWz01tPMp9xfPWSl0EE-129" style="edgeStyle=orthogonalEdgeStyle;rounded=0;orthogonalLoop=1;jettySize=auto;html=1;entryX=0;entryY=0.5;entryDx=0;entryDy=0;" edge="1" parent="YQWz01tPMp9xfPWSl0EE-34" source="YQWz01tPMp9xfPWSl0EE-130" target="YQWz01tPMp9xfPWSl0EE-133">
          <mxGeometry relative="1" as="geometry" />
        </mxCell>
        <mxCell id="YQWz01tPMp9xfPWSl0EE-130" value="มีสินค้าหรือไม่" style="rhombus;whiteSpace=wrap;html=1;fontFamily=Sarabun;fontSource=https%3A%2F%2Ffonts.googleapis.com%2Fcss%3Ffamily%3DSarabun;" vertex="1" parent="YQWz01tPMp9xfPWSl0EE-34">
          <mxGeometry x="157.5" y="1070" width="100" height="60" as="geometry" />
        </mxCell>
        <mxCell id="YQWz01tPMp9xfPWSl0EE-131" style="edgeStyle=orthogonalEdgeStyle;rounded=0;orthogonalLoop=1;jettySize=auto;html=1;entryX=0;entryY=0.5;entryDx=0;entryDy=0;" edge="1" parent="YQWz01tPMp9xfPWSl0EE-34" source="YQWz01tPMp9xfPWSl0EE-133" target="YQWz01tPMp9xfPWSl0EE-144">
          <mxGeometry relative="1" as="geometry" />
        </mxCell>
        <mxCell id="YQWz01tPMp9xfPWSl0EE-132" style="edgeStyle=orthogonalEdgeStyle;rounded=0;orthogonalLoop=1;jettySize=auto;html=1;" edge="1" parent="YQWz01tPMp9xfPWSl0EE-34" source="YQWz01tPMp9xfPWSl0EE-133">
          <mxGeometry relative="1" as="geometry">
            <mxPoint x="334" y="1150" as="targetPoint" />
          </mxGeometry>
        </mxCell>
        <mxCell id="YQWz01tPMp9xfPWSl0EE-133" value="หมดอายุมั้ย" style="rhombus;whiteSpace=wrap;html=1;fontFamily=Sarabun;fontSource=https%3A%2F%2Ffonts.googleapis.com%2Fcss%3Ffamily%3DSarabun;" vertex="1" parent="YQWz01tPMp9xfPWSl0EE-34">
          <mxGeometry x="284" y="1070" width="100" height="60" as="geometry" />
        </mxCell>
        <mxCell id="YQWz01tPMp9xfPWSl0EE-134" style="edgeStyle=orthogonalEdgeStyle;rounded=0;orthogonalLoop=1;jettySize=auto;html=1;entryX=0;entryY=0.5;entryDx=0;entryDy=0;" edge="1" parent="YQWz01tPMp9xfPWSl0EE-34" source="YQWz01tPMp9xfPWSl0EE-135" target="YQWz01tPMp9xfPWSl0EE-137">
          <mxGeometry relative="1" as="geometry" />
        </mxCell>
        <mxCell id="YQWz01tPMp9xfPWSl0EE-135" value="มีสินค้าหรือไม่" style="rhombus;whiteSpace=wrap;html=1;fontFamily=Sarabun;fontSource=https%3A%2F%2Ffonts.googleapis.com%2Fcss%3Ffamily%3DSarabun;" vertex="1" parent="YQWz01tPMp9xfPWSl0EE-34">
          <mxGeometry x="157.5" y="1170" width="100" height="60" as="geometry" />
        </mxCell>
        <mxCell id="YQWz01tPMp9xfPWSl0EE-136" style="edgeStyle=orthogonalEdgeStyle;rounded=0;orthogonalLoop=1;jettySize=auto;html=1;entryX=0;entryY=0.5;entryDx=0;entryDy=0;" edge="1" parent="YQWz01tPMp9xfPWSl0EE-34" source="YQWz01tPMp9xfPWSl0EE-137" target="YQWz01tPMp9xfPWSl0EE-142">
          <mxGeometry relative="1" as="geometry" />
        </mxCell>
        <mxCell id="YQWz01tPMp9xfPWSl0EE-137" value="หมดอายุมั้ย" style="rhombus;whiteSpace=wrap;html=1;fontFamily=Sarabun;fontSource=https%3A%2F%2Ffonts.googleapis.com%2Fcss%3Ffamily%3DSarabun;" vertex="1" parent="YQWz01tPMp9xfPWSl0EE-34">
          <mxGeometry x="284" y="1170" width="100" height="60" as="geometry" />
        </mxCell>
        <mxCell id="YQWz01tPMp9xfPWSl0EE-138" style="edgeStyle=orthogonalEdgeStyle;rounded=0;orthogonalLoop=1;jettySize=auto;html=1;entryX=0.075;entryY=0.5;entryDx=0;entryDy=0;entryPerimeter=0;" edge="1" parent="YQWz01tPMp9xfPWSl0EE-34" source="YQWz01tPMp9xfPWSl0EE-112" target="YQWz01tPMp9xfPWSl0EE-125">
          <mxGeometry relative="1" as="geometry" />
        </mxCell>
        <mxCell id="YQWz01tPMp9xfPWSl0EE-139" style="edgeStyle=orthogonalEdgeStyle;rounded=0;orthogonalLoop=1;jettySize=auto;html=1;" edge="1" parent="YQWz01tPMp9xfPWSl0EE-34" source="YQWz01tPMp9xfPWSl0EE-140">
          <mxGeometry relative="1" as="geometry">
            <mxPoint x="630" y="1000" as="targetPoint" />
          </mxGeometry>
        </mxCell>
        <mxCell id="YQWz01tPMp9xfPWSl0EE-140" value="น้ำเขียว + 1" style="rounded=0;whiteSpace=wrap;html=1;fontFamily=Sarabun;fontSource=https%3A%2F%2Ffonts.googleapis.com%2Fcss%3Ffamily%3DSarabun;" vertex="1" parent="YQWz01tPMp9xfPWSl0EE-34">
          <mxGeometry x="420" y="985" width="65" height="30" as="geometry" />
        </mxCell>
        <mxCell id="YQWz01tPMp9xfPWSl0EE-141" style="edgeStyle=orthogonalEdgeStyle;rounded=0;orthogonalLoop=1;jettySize=auto;html=1;" edge="1" parent="YQWz01tPMp9xfPWSl0EE-34" source="YQWz01tPMp9xfPWSl0EE-142">
          <mxGeometry relative="1" as="geometry">
            <mxPoint x="630" y="1200" as="targetPoint" />
          </mxGeometry>
        </mxCell>
        <mxCell id="YQWz01tPMp9xfPWSl0EE-142" value="ลาเต้หวานเจี๊ยบ + 1" style="rounded=0;whiteSpace=wrap;html=1;fontFamily=Sarabun;fontSource=https%3A%2F%2Ffonts.googleapis.com%2Fcss%3Ffamily%3DSarabun;" vertex="1" parent="YQWz01tPMp9xfPWSl0EE-34">
          <mxGeometry x="420" y="1185" width="100" height="30" as="geometry" />
        </mxCell>
        <mxCell id="YQWz01tPMp9xfPWSl0EE-143" style="edgeStyle=orthogonalEdgeStyle;rounded=0;orthogonalLoop=1;jettySize=auto;html=1;" edge="1" parent="YQWz01tPMp9xfPWSl0EE-34" source="YQWz01tPMp9xfPWSl0EE-144">
          <mxGeometry relative="1" as="geometry">
            <mxPoint x="630" y="1100" as="targetPoint" />
          </mxGeometry>
        </mxCell>
        <mxCell id="YQWz01tPMp9xfPWSl0EE-144" value="อเมริกาโน่ + 1" style="rounded=0;whiteSpace=wrap;html=1;fontFamily=Sarabun;fontSource=https%3A%2F%2Ffonts.googleapis.com%2Fcss%3Ffamily%3DSarabun;" vertex="1" parent="YQWz01tPMp9xfPWSl0EE-34">
          <mxGeometry x="417.5" y="1085" width="72.5" height="30" as="geometry" />
        </mxCell>
        <mxCell id="YQWz01tPMp9xfPWSl0EE-145" style="edgeStyle=orthogonalEdgeStyle;rounded=0;orthogonalLoop=1;jettySize=auto;html=1;" edge="1" parent="YQWz01tPMp9xfPWSl0EE-34" source="YQWz01tPMp9xfPWSl0EE-147" target="YQWz01tPMp9xfPWSl0EE-149">
          <mxGeometry relative="1" as="geometry" />
        </mxCell>
        <mxCell id="YQWz01tPMp9xfPWSl0EE-146" style="edgeStyle=orthogonalEdgeStyle;rounded=0;orthogonalLoop=1;jettySize=auto;html=1;entryX=0;entryY=0.5;entryDx=0;entryDy=0;" edge="1" parent="YQWz01tPMp9xfPWSl0EE-34" source="YQWz01tPMp9xfPWSl0EE-147" target="YQWz01tPMp9xfPWSl0EE-152">
          <mxGeometry relative="1" as="geometry" />
        </mxCell>
        <mxCell id="YQWz01tPMp9xfPWSl0EE-341" style="edgeStyle=orthogonalEdgeStyle;rounded=0;orthogonalLoop=1;jettySize=auto;html=1;exitX=1;exitY=1;exitDx=0;exitDy=0;" edge="1" parent="YQWz01tPMp9xfPWSl0EE-34" source="YQWz01tPMp9xfPWSl0EE-147">
          <mxGeometry relative="1" as="geometry">
            <mxPoint x="1012" y="708" as="targetPoint" />
          </mxGeometry>
        </mxCell>
        <mxCell id="YQWz01tPMp9xfPWSl0EE-147" value="เมล็ดทานตะวัน" style="rhombus;whiteSpace=wrap;html=1;fontFamily=Sarabun;fontSource=https%3A%2F%2Ffonts.googleapis.com%2Fcss%3Ffamily%3DSarabun;" vertex="1" parent="YQWz01tPMp9xfPWSl0EE-34">
          <mxGeometry x="660" y="870" width="100" height="60" as="geometry" />
        </mxCell>
        <mxCell id="YQWz01tPMp9xfPWSl0EE-148" style="edgeStyle=orthogonalEdgeStyle;rounded=0;orthogonalLoop=1;jettySize=auto;html=1;" edge="1" parent="YQWz01tPMp9xfPWSl0EE-34" source="YQWz01tPMp9xfPWSl0EE-149">
          <mxGeometry relative="1" as="geometry">
            <mxPoint x="710" y="1070" as="targetPoint" />
          </mxGeometry>
        </mxCell>
        <mxCell id="YQWz01tPMp9xfPWSl0EE-149" value="ถั่วแปบ" style="rhombus;whiteSpace=wrap;html=1;fontFamily=Sarabun;fontSource=https%3A%2F%2Ffonts.googleapis.com%2Fcss%3Ffamily%3DSarabun;" vertex="1" parent="YQWz01tPMp9xfPWSl0EE-34">
          <mxGeometry x="660" y="970" width="100" height="60" as="geometry" />
        </mxCell>
        <mxCell id="YQWz01tPMp9xfPWSl0EE-150" value="" style="edgeStyle=orthogonalEdgeStyle;rounded=0;orthogonalLoop=1;jettySize=auto;html=1;" edge="1" parent="YQWz01tPMp9xfPWSl0EE-34" target="YQWz01tPMp9xfPWSl0EE-162">
          <mxGeometry relative="1" as="geometry">
            <mxPoint x="760" y="1100" as="sourcePoint" />
          </mxGeometry>
        </mxCell>
        <mxCell id="YQWz01tPMp9xfPWSl0EE-151" style="edgeStyle=orthogonalEdgeStyle;rounded=0;orthogonalLoop=1;jettySize=auto;html=1;" edge="1" parent="YQWz01tPMp9xfPWSl0EE-34" source="YQWz01tPMp9xfPWSl0EE-152" target="YQWz01tPMp9xfPWSl0EE-154">
          <mxGeometry relative="1" as="geometry" />
        </mxCell>
        <mxCell id="YQWz01tPMp9xfPWSl0EE-152" value="มีสินค้าหรือไม่" style="rhombus;whiteSpace=wrap;html=1;fontFamily=Sarabun;fontSource=https%3A%2F%2Ffonts.googleapis.com%2Fcss%3Ffamily%3DSarabun;" vertex="1" parent="YQWz01tPMp9xfPWSl0EE-34">
          <mxGeometry x="797.5" y="870" width="100" height="60" as="geometry" />
        </mxCell>
        <mxCell id="YQWz01tPMp9xfPWSl0EE-153" style="edgeStyle=orthogonalEdgeStyle;rounded=0;orthogonalLoop=1;jettySize=auto;html=1;entryX=0;entryY=0.5;entryDx=0;entryDy=0;" edge="1" parent="YQWz01tPMp9xfPWSl0EE-34" source="YQWz01tPMp9xfPWSl0EE-154" target="YQWz01tPMp9xfPWSl0EE-156">
          <mxGeometry relative="1" as="geometry" />
        </mxCell>
        <mxCell id="YQWz01tPMp9xfPWSl0EE-154" value="หมดอายุมั้ย" style="rhombus;whiteSpace=wrap;html=1;fontFamily=Sarabun;fontSource=https%3A%2F%2Ffonts.googleapis.com%2Fcss%3Ffamily%3DSarabun;" vertex="1" parent="YQWz01tPMp9xfPWSl0EE-34">
          <mxGeometry x="924" y="870" width="100" height="60" as="geometry" />
        </mxCell>
        <mxCell id="YQWz01tPMp9xfPWSl0EE-155" style="edgeStyle=orthogonalEdgeStyle;rounded=0;orthogonalLoop=1;jettySize=auto;html=1;entryX=1;entryY=0.5;entryDx=0;entryDy=0;" edge="1" parent="YQWz01tPMp9xfPWSl0EE-34" source="YQWz01tPMp9xfPWSl0EE-156" target="YQWz01tPMp9xfPWSl0EE-175">
          <mxGeometry relative="1" as="geometry">
            <Array as="points">
              <mxPoint x="1220" y="900" />
              <mxPoint x="1220" y="1295" />
            </Array>
          </mxGeometry>
        </mxCell>
        <mxCell id="YQWz01tPMp9xfPWSl0EE-156" value="เมล็ดทานตะวัน+ 1" style="rounded=0;whiteSpace=wrap;html=1;fontFamily=Sarabun;fontSource=https%3A%2F%2Ffonts.googleapis.com%2Fcss%3Ffamily%3DSarabun;" vertex="1" parent="YQWz01tPMp9xfPWSl0EE-34">
          <mxGeometry x="1057.5" y="885" width="102.5" height="30" as="geometry" />
        </mxCell>
        <mxCell id="YQWz01tPMp9xfPWSl0EE-157" style="edgeStyle=orthogonalEdgeStyle;rounded=0;orthogonalLoop=1;jettySize=auto;html=1;entryX=0;entryY=0.5;entryDx=0;entryDy=0;" edge="1" parent="YQWz01tPMp9xfPWSl0EE-34" source="YQWz01tPMp9xfPWSl0EE-158" target="YQWz01tPMp9xfPWSl0EE-160">
          <mxGeometry relative="1" as="geometry" />
        </mxCell>
        <mxCell id="YQWz01tPMp9xfPWSl0EE-158" value="มีสินค้าหรือไม่" style="rhombus;whiteSpace=wrap;html=1;fontFamily=Sarabun;fontSource=https%3A%2F%2Ffonts.googleapis.com%2Fcss%3Ffamily%3DSarabun;" vertex="1" parent="YQWz01tPMp9xfPWSl0EE-34">
          <mxGeometry x="797.5" y="970" width="100" height="60" as="geometry" />
        </mxCell>
        <mxCell id="YQWz01tPMp9xfPWSl0EE-159" style="edgeStyle=orthogonalEdgeStyle;rounded=0;orthogonalLoop=1;jettySize=auto;html=1;" edge="1" parent="YQWz01tPMp9xfPWSl0EE-34" source="YQWz01tPMp9xfPWSl0EE-160" target="YQWz01tPMp9xfPWSl0EE-167">
          <mxGeometry relative="1" as="geometry" />
        </mxCell>
        <mxCell id="YQWz01tPMp9xfPWSl0EE-160" value="หมดอายุมั้ย" style="rhombus;whiteSpace=wrap;html=1;fontFamily=Sarabun;fontSource=https%3A%2F%2Ffonts.googleapis.com%2Fcss%3Ffamily%3DSarabun;" vertex="1" parent="YQWz01tPMp9xfPWSl0EE-34">
          <mxGeometry x="924" y="970" width="100" height="60" as="geometry" />
        </mxCell>
        <mxCell id="YQWz01tPMp9xfPWSl0EE-161" style="edgeStyle=orthogonalEdgeStyle;rounded=0;orthogonalLoop=1;jettySize=auto;html=1;entryX=0;entryY=0.5;entryDx=0;entryDy=0;" edge="1" parent="YQWz01tPMp9xfPWSl0EE-34" source="YQWz01tPMp9xfPWSl0EE-162" target="YQWz01tPMp9xfPWSl0EE-164">
          <mxGeometry relative="1" as="geometry" />
        </mxCell>
        <mxCell id="YQWz01tPMp9xfPWSl0EE-162" value="มีสินค้าหรือไม่" style="rhombus;whiteSpace=wrap;html=1;fontFamily=Sarabun;fontSource=https%3A%2F%2Ffonts.googleapis.com%2Fcss%3Ffamily%3DSarabun;" vertex="1" parent="YQWz01tPMp9xfPWSl0EE-34">
          <mxGeometry x="797.5" y="1070" width="100" height="60" as="geometry" />
        </mxCell>
        <mxCell id="YQWz01tPMp9xfPWSl0EE-163" style="edgeStyle=orthogonalEdgeStyle;rounded=0;orthogonalLoop=1;jettySize=auto;html=1;entryX=0;entryY=0.5;entryDx=0;entryDy=0;" edge="1" parent="YQWz01tPMp9xfPWSl0EE-34" source="YQWz01tPMp9xfPWSl0EE-164" target="YQWz01tPMp9xfPWSl0EE-169">
          <mxGeometry relative="1" as="geometry" />
        </mxCell>
        <mxCell id="YQWz01tPMp9xfPWSl0EE-164" value="หมดอายุมั้ย" style="rhombus;whiteSpace=wrap;html=1;fontFamily=Sarabun;fontSource=https%3A%2F%2Ffonts.googleapis.com%2Fcss%3Ffamily%3DSarabun;" vertex="1" parent="YQWz01tPMp9xfPWSl0EE-34">
          <mxGeometry x="924" y="1070" width="100" height="60" as="geometry" />
        </mxCell>
        <mxCell id="YQWz01tPMp9xfPWSl0EE-165" style="edgeStyle=orthogonalEdgeStyle;rounded=0;orthogonalLoop=1;jettySize=auto;html=1;entryX=0.075;entryY=0.5;entryDx=0;entryDy=0;entryPerimeter=0;" edge="1" parent="YQWz01tPMp9xfPWSl0EE-34" source="YQWz01tPMp9xfPWSl0EE-149" target="YQWz01tPMp9xfPWSl0EE-158">
          <mxGeometry relative="1" as="geometry" />
        </mxCell>
        <mxCell id="YQWz01tPMp9xfPWSl0EE-166" style="edgeStyle=orthogonalEdgeStyle;rounded=0;orthogonalLoop=1;jettySize=auto;html=1;" edge="1" parent="YQWz01tPMp9xfPWSl0EE-34" source="YQWz01tPMp9xfPWSl0EE-167">
          <mxGeometry relative="1" as="geometry">
            <mxPoint x="1220" y="1000.0000000000002" as="targetPoint" />
          </mxGeometry>
        </mxCell>
        <mxCell id="YQWz01tPMp9xfPWSl0EE-167" value="ถั่วแปบ&amp;nbsp;+ 1" style="rounded=0;whiteSpace=wrap;html=1;fontFamily=Sarabun;fontSource=https%3A%2F%2Ffonts.googleapis.com%2Fcss%3Ffamily%3DSarabun;" vertex="1" parent="YQWz01tPMp9xfPWSl0EE-34">
          <mxGeometry x="1060" y="985" width="65" height="30" as="geometry" />
        </mxCell>
        <mxCell id="YQWz01tPMp9xfPWSl0EE-168" style="edgeStyle=orthogonalEdgeStyle;rounded=0;orthogonalLoop=1;jettySize=auto;html=1;" edge="1" parent="YQWz01tPMp9xfPWSl0EE-34" source="YQWz01tPMp9xfPWSl0EE-169">
          <mxGeometry relative="1" as="geometry">
            <mxPoint x="1220" y="1100.0000000000002" as="targetPoint" />
          </mxGeometry>
        </mxCell>
        <mxCell id="YQWz01tPMp9xfPWSl0EE-169" value="จิ้นส้มหมก&amp;nbsp;+ 1" style="rounded=0;whiteSpace=wrap;html=1;fontFamily=Sarabun;fontSource=https%3A%2F%2Ffonts.googleapis.com%2Fcss%3Ffamily%3DSarabun;" vertex="1" parent="YQWz01tPMp9xfPWSl0EE-34">
          <mxGeometry x="1057.5" y="1085" width="82.5" height="30" as="geometry" />
        </mxCell>
        <mxCell id="YQWz01tPMp9xfPWSl0EE-170" style="edgeStyle=orthogonalEdgeStyle;rounded=0;orthogonalLoop=1;jettySize=auto;html=1;entryX=0.5;entryY=0;entryDx=0;entryDy=0;" edge="1" parent="YQWz01tPMp9xfPWSl0EE-34" source="YQWz01tPMp9xfPWSl0EE-171" target="YQWz01tPMp9xfPWSl0EE-147">
          <mxGeometry relative="1" as="geometry" />
        </mxCell>
        <mxCell id="YQWz01tPMp9xfPWSl0EE-171" value="ขนม" style="rounded=0;whiteSpace=wrap;html=1;fontFamily=Sarabun;fontSource=https%3A%2F%2Ffonts.googleapis.com%2Fcss%3Ffamily%3DSarabun;" vertex="1" parent="YQWz01tPMp9xfPWSl0EE-34">
          <mxGeometry x="772.63" y="800" width="120" height="30" as="geometry" />
        </mxCell>
        <mxCell id="YQWz01tPMp9xfPWSl0EE-172" style="edgeStyle=orthogonalEdgeStyle;rounded=0;orthogonalLoop=1;jettySize=auto;html=1;" edge="1" parent="YQWz01tPMp9xfPWSl0EE-34">
          <mxGeometry relative="1" as="geometry">
            <mxPoint x="630" y="1250" as="targetPoint" />
            <mxPoint x="207" y="1230" as="sourcePoint" />
            <Array as="points">
              <mxPoint x="207" y="1250" />
            </Array>
          </mxGeometry>
        </mxCell>
        <mxCell id="YQWz01tPMp9xfPWSl0EE-173" style="edgeStyle=orthogonalEdgeStyle;rounded=0;orthogonalLoop=1;jettySize=auto;html=1;" edge="1" parent="YQWz01tPMp9xfPWSl0EE-34">
          <mxGeometry relative="1" as="geometry">
            <mxPoint x="334" y="1250" as="targetPoint" />
            <mxPoint x="334" y="1230" as="sourcePoint" />
          </mxGeometry>
        </mxCell>
        <mxCell id="YQWz01tPMp9xfPWSl0EE-174" style="edgeStyle=orthogonalEdgeStyle;rounded=0;orthogonalLoop=1;jettySize=auto;html=1;entryX=0.5;entryY=0;entryDx=0;entryDy=0;" edge="1" parent="YQWz01tPMp9xfPWSl0EE-34" source="YQWz01tPMp9xfPWSl0EE-175" target="YQWz01tPMp9xfPWSl0EE-213">
          <mxGeometry relative="1" as="geometry" />
        </mxCell>
        <mxCell id="YQWz01tPMp9xfPWSl0EE-175" value="" style="ellipse;whiteSpace=wrap;html=1;aspect=fixed;" vertex="1" parent="YQWz01tPMp9xfPWSl0EE-34">
          <mxGeometry x="616" y="1280" width="30" height="30" as="geometry" />
        </mxCell>
        <mxCell id="YQWz01tPMp9xfPWSl0EE-176" style="edgeStyle=orthogonalEdgeStyle;rounded=0;orthogonalLoop=1;jettySize=auto;html=1;entryX=1;entryY=0.5;entryDx=0;entryDy=0;" edge="1" parent="YQWz01tPMp9xfPWSl0EE-34" source="YQWz01tPMp9xfPWSl0EE-178" target="YQWz01tPMp9xfPWSl0EE-180">
          <mxGeometry relative="1" as="geometry">
            <Array as="points">
              <mxPoint x="1322" y="1604" />
              <mxPoint x="1322" y="704" />
            </Array>
          </mxGeometry>
        </mxCell>
        <mxCell id="YQWz01tPMp9xfPWSl0EE-177" style="edgeStyle=orthogonalEdgeStyle;rounded=0;orthogonalLoop=1;jettySize=auto;html=1;entryX=0.5;entryY=0;entryDx=0;entryDy=0;" edge="1" parent="YQWz01tPMp9xfPWSl0EE-34" source="YQWz01tPMp9xfPWSl0EE-178" target="YQWz01tPMp9xfPWSl0EE-181">
          <mxGeometry relative="1" as="geometry" />
        </mxCell>
        <mxCell id="YQWz01tPMp9xfPWSl0EE-178" value="ต้องการซื้อสินค้าเพิ่มหรือไม่" style="rhombus;whiteSpace=wrap;html=1;fontFamily=Sarabun;fontSource=https%3A%2F%2Ffonts.googleapis.com%2Fcss%3Ffamily%3DSarabun;" vertex="1" parent="YQWz01tPMp9xfPWSl0EE-34">
          <mxGeometry x="556.5" y="1569" width="149" height="70" as="geometry" />
        </mxCell>
        <mxCell id="YQWz01tPMp9xfPWSl0EE-179" style="edgeStyle=orthogonalEdgeStyle;rounded=0;orthogonalLoop=1;jettySize=auto;html=1;" edge="1" parent="YQWz01tPMp9xfPWSl0EE-34" source="YQWz01tPMp9xfPWSl0EE-180" target="YQWz01tPMp9xfPWSl0EE-105">
          <mxGeometry relative="1" as="geometry" />
        </mxCell>
        <mxCell id="YQWz01tPMp9xfPWSl0EE-180" value="" style="ellipse;whiteSpace=wrap;html=1;aspect=fixed;" vertex="1" parent="YQWz01tPMp9xfPWSl0EE-34">
          <mxGeometry x="615.75" y="698" width="30" height="30" as="geometry" />
        </mxCell>
        <mxCell id="YQWz01tPMp9xfPWSl0EE-181" value="" style="verticalLabelPosition=bottom;verticalAlign=top;html=1;shape=offPageConnector;rounded=0;size=0.5;" vertex="1" parent="YQWz01tPMp9xfPWSl0EE-34">
          <mxGeometry x="616" y="1668" width="30" height="30" as="geometry" />
        </mxCell>
        <mxCell id="YQWz01tPMp9xfPWSl0EE-182" value="ก" style="text;html=1;align=center;verticalAlign=middle;resizable=0;points=[];autosize=1;strokeColor=none;fillColor=none;" vertex="1" parent="YQWz01tPMp9xfPWSl0EE-34">
          <mxGeometry x="616" y="1668" width="30" height="30" as="geometry" />
        </mxCell>
        <mxCell id="YQWz01tPMp9xfPWSl0EE-183" value="ใช่" style="text;html=1;align=center;verticalAlign=middle;resizable=0;points=[];autosize=1;strokeColor=none;fillColor=none;" vertex="1" parent="YQWz01tPMp9xfPWSl0EE-34">
          <mxGeometry x="246" y="875" width="40" height="30" as="geometry" />
        </mxCell>
        <mxCell id="YQWz01tPMp9xfPWSl0EE-184" value="ใช่" style="text;html=1;align=center;verticalAlign=middle;resizable=0;points=[];autosize=1;strokeColor=none;fillColor=none;" vertex="1" parent="YQWz01tPMp9xfPWSl0EE-34">
          <mxGeometry x="326" y="919" width="40" height="30" as="geometry" />
        </mxCell>
        <mxCell id="YQWz01tPMp9xfPWSl0EE-185" value="ใช่" style="text;html=1;align=center;verticalAlign=middle;resizable=0;points=[];autosize=1;strokeColor=none;fillColor=none;" vertex="1" parent="YQWz01tPMp9xfPWSl0EE-34">
          <mxGeometry x="246" y="979" width="40" height="30" as="geometry" />
        </mxCell>
        <mxCell id="YQWz01tPMp9xfPWSl0EE-186" value="ใช่" style="text;html=1;align=center;verticalAlign=middle;resizable=0;points=[];autosize=1;strokeColor=none;fillColor=none;" vertex="1" parent="YQWz01tPMp9xfPWSl0EE-34">
          <mxGeometry x="326" y="1019" width="40" height="30" as="geometry" />
        </mxCell>
        <mxCell id="YQWz01tPMp9xfPWSl0EE-187" value="ใช่" style="text;html=1;align=center;verticalAlign=middle;resizable=0;points=[];autosize=1;strokeColor=none;fillColor=none;" vertex="1" parent="YQWz01tPMp9xfPWSl0EE-34">
          <mxGeometry x="246" y="1079" width="40" height="30" as="geometry" />
        </mxCell>
        <mxCell id="YQWz01tPMp9xfPWSl0EE-188" value="ใช่" style="text;html=1;align=center;verticalAlign=middle;resizable=0;points=[];autosize=1;strokeColor=none;fillColor=none;" vertex="1" parent="YQWz01tPMp9xfPWSl0EE-34">
          <mxGeometry x="246" y="1170" width="40" height="30" as="geometry" />
        </mxCell>
        <mxCell id="YQWz01tPMp9xfPWSl0EE-189" value="ใช่" style="text;html=1;align=center;verticalAlign=middle;resizable=0;points=[];autosize=1;strokeColor=none;fillColor=none;" vertex="1" parent="YQWz01tPMp9xfPWSl0EE-34">
          <mxGeometry x="332" y="1119" width="40" height="30" as="geometry" />
        </mxCell>
        <mxCell id="YQWz01tPMp9xfPWSl0EE-190" value="ใช่" style="text;html=1;align=center;verticalAlign=middle;resizable=0;points=[];autosize=1;strokeColor=none;fillColor=none;" vertex="1" parent="YQWz01tPMp9xfPWSl0EE-34">
          <mxGeometry x="705.5" y="1578" width="40" height="30" as="geometry" />
        </mxCell>
        <mxCell id="YQWz01tPMp9xfPWSl0EE-191" value="ไม่" style="text;html=1;align=center;verticalAlign=middle;resizable=0;points=[];autosize=1;strokeColor=none;fillColor=none;" vertex="1" parent="YQWz01tPMp9xfPWSl0EE-34">
          <mxGeometry x="372" y="875" width="40" height="30" as="geometry" />
        </mxCell>
        <mxCell id="YQWz01tPMp9xfPWSl0EE-192" value="ไม่" style="text;html=1;align=center;verticalAlign=middle;resizable=0;points=[];autosize=1;strokeColor=none;fillColor=none;" vertex="1" parent="YQWz01tPMp9xfPWSl0EE-34">
          <mxGeometry x="380" y="979" width="40" height="30" as="geometry" />
        </mxCell>
        <mxCell id="YQWz01tPMp9xfPWSl0EE-193" value="ไม่" style="text;html=1;align=center;verticalAlign=middle;resizable=0;points=[];autosize=1;strokeColor=none;fillColor=none;" vertex="1" parent="YQWz01tPMp9xfPWSl0EE-34">
          <mxGeometry x="206" y="919" width="40" height="30" as="geometry" />
        </mxCell>
        <mxCell id="YQWz01tPMp9xfPWSl0EE-194" value="ไม่" style="text;html=1;align=center;verticalAlign=middle;resizable=0;points=[];autosize=1;strokeColor=none;fillColor=none;" vertex="1" parent="YQWz01tPMp9xfPWSl0EE-34">
          <mxGeometry x="206" y="1019" width="40" height="30" as="geometry" />
        </mxCell>
        <mxCell id="YQWz01tPMp9xfPWSl0EE-195" value="ไม่" style="text;html=1;align=center;verticalAlign=middle;resizable=0;points=[];autosize=1;strokeColor=none;fillColor=none;" vertex="1" parent="YQWz01tPMp9xfPWSl0EE-34">
          <mxGeometry x="206" y="1119" width="40" height="30" as="geometry" />
        </mxCell>
        <mxCell id="YQWz01tPMp9xfPWSl0EE-196" value="ไม่" style="text;html=1;align=center;verticalAlign=middle;resizable=0;points=[];autosize=1;strokeColor=none;fillColor=none;" vertex="1" parent="YQWz01tPMp9xfPWSl0EE-34">
          <mxGeometry x="206" y="1219" width="40" height="30" as="geometry" />
        </mxCell>
        <mxCell id="YQWz01tPMp9xfPWSl0EE-197" value="ไม่" style="text;html=1;align=center;verticalAlign=middle;resizable=0;points=[];autosize=1;strokeColor=none;fillColor=none;" vertex="1" parent="YQWz01tPMp9xfPWSl0EE-34">
          <mxGeometry x="377.5" y="1170" width="40" height="30" as="geometry" />
        </mxCell>
        <mxCell id="YQWz01tPMp9xfPWSl0EE-198" value="ไม่" style="text;html=1;align=center;verticalAlign=middle;resizable=0;points=[];autosize=1;strokeColor=none;fillColor=none;" vertex="1" parent="YQWz01tPMp9xfPWSl0EE-34">
          <mxGeometry x="380" y="1070" width="40" height="30" as="geometry" />
        </mxCell>
        <mxCell id="YQWz01tPMp9xfPWSl0EE-199" value="ไม่" style="text;html=1;align=center;verticalAlign=middle;resizable=0;points=[];autosize=1;strokeColor=none;fillColor=none;" vertex="1" parent="YQWz01tPMp9xfPWSl0EE-34">
          <mxGeometry x="632" y="1639" width="40" height="30" as="geometry" />
        </mxCell>
        <mxCell id="YQWz01tPMp9xfPWSl0EE-200" value="ใช่" style="text;html=1;align=center;verticalAlign=middle;resizable=0;points=[];autosize=1;strokeColor=none;fillColor=none;" vertex="1" parent="YQWz01tPMp9xfPWSl0EE-34">
          <mxGeometry x="884" y="875" width="40" height="30" as="geometry" />
        </mxCell>
        <mxCell id="YQWz01tPMp9xfPWSl0EE-201" value="ใช่" style="text;html=1;align=center;verticalAlign=middle;resizable=0;points=[];autosize=1;strokeColor=none;fillColor=none;" vertex="1" parent="YQWz01tPMp9xfPWSl0EE-34">
          <mxGeometry x="884" y="979" width="40" height="30" as="geometry" />
        </mxCell>
        <mxCell id="YQWz01tPMp9xfPWSl0EE-202" value="ใช่" style="text;html=1;align=center;verticalAlign=middle;resizable=0;points=[];autosize=1;strokeColor=none;fillColor=none;" vertex="1" parent="YQWz01tPMp9xfPWSl0EE-34">
          <mxGeometry x="884" y="1079" width="40" height="30" as="geometry" />
        </mxCell>
        <mxCell id="YQWz01tPMp9xfPWSl0EE-203" value="ใช่" style="text;html=1;align=center;verticalAlign=middle;resizable=0;points=[];autosize=1;strokeColor=none;fillColor=none;" vertex="1" parent="YQWz01tPMp9xfPWSl0EE-34">
          <mxGeometry x="972" y="1119" width="40" height="30" as="geometry" />
        </mxCell>
        <mxCell id="YQWz01tPMp9xfPWSl0EE-204" value="ใช่" style="text;html=1;align=center;verticalAlign=middle;resizable=0;points=[];autosize=1;strokeColor=none;fillColor=none;" vertex="1" parent="YQWz01tPMp9xfPWSl0EE-34">
          <mxGeometry x="972" y="1015" width="40" height="30" as="geometry" />
        </mxCell>
        <mxCell id="YQWz01tPMp9xfPWSl0EE-205" value="ใช่" style="text;html=1;align=center;verticalAlign=middle;resizable=0;points=[];autosize=1;strokeColor=none;fillColor=none;" vertex="1" parent="YQWz01tPMp9xfPWSl0EE-34">
          <mxGeometry x="972" y="919" width="40" height="30" as="geometry" />
        </mxCell>
        <mxCell id="YQWz01tPMp9xfPWSl0EE-206" value="ไม่" style="text;html=1;align=center;verticalAlign=middle;resizable=0;points=[];autosize=1;strokeColor=none;fillColor=none;" vertex="1" parent="YQWz01tPMp9xfPWSl0EE-34">
          <mxGeometry x="1017.5" y="870" width="40" height="30" as="geometry" />
        </mxCell>
        <mxCell id="YQWz01tPMp9xfPWSl0EE-207" value="ไม่" style="text;html=1;align=center;verticalAlign=middle;resizable=0;points=[];autosize=1;strokeColor=none;fillColor=none;" vertex="1" parent="YQWz01tPMp9xfPWSl0EE-34">
          <mxGeometry x="844" y="919" width="40" height="30" as="geometry" />
        </mxCell>
        <mxCell id="YQWz01tPMp9xfPWSl0EE-208" value="ไม่" style="text;html=1;align=center;verticalAlign=middle;resizable=0;points=[];autosize=1;strokeColor=none;fillColor=none;" vertex="1" parent="YQWz01tPMp9xfPWSl0EE-34">
          <mxGeometry x="852" y="1015" width="40" height="30" as="geometry" />
        </mxCell>
        <mxCell id="YQWz01tPMp9xfPWSl0EE-209" value="ไม่" style="text;html=1;align=center;verticalAlign=middle;resizable=0;points=[];autosize=1;strokeColor=none;fillColor=none;" vertex="1" parent="YQWz01tPMp9xfPWSl0EE-34">
          <mxGeometry x="1020" y="970" width="40" height="30" as="geometry" />
        </mxCell>
        <mxCell id="YQWz01tPMp9xfPWSl0EE-210" value="ไม่" style="text;html=1;align=center;verticalAlign=middle;resizable=0;points=[];autosize=1;strokeColor=none;fillColor=none;" vertex="1" parent="YQWz01tPMp9xfPWSl0EE-34">
          <mxGeometry x="844" y="1119" width="40" height="30" as="geometry" />
        </mxCell>
        <mxCell id="YQWz01tPMp9xfPWSl0EE-211" value="ไม่" style="text;html=1;align=center;verticalAlign=middle;resizable=0;points=[];autosize=1;strokeColor=none;fillColor=none;" vertex="1" parent="YQWz01tPMp9xfPWSl0EE-34">
          <mxGeometry x="1020" y="1070" width="40" height="30" as="geometry" />
        </mxCell>
        <mxCell id="YQWz01tPMp9xfPWSl0EE-212" style="edgeStyle=orthogonalEdgeStyle;rounded=0;orthogonalLoop=1;jettySize=auto;html=1;" edge="1" parent="YQWz01tPMp9xfPWSl0EE-34" source="YQWz01tPMp9xfPWSl0EE-213" target="YQWz01tPMp9xfPWSl0EE-215">
          <mxGeometry relative="1" as="geometry" />
        </mxCell>
        <mxCell id="YQWz01tPMp9xfPWSl0EE-213" value="ราคาสินค้า + b" style="rounded=0;whiteSpace=wrap;html=1;fontFamily=Sarabun;fontSource=https%3A%2F%2Ffonts.googleapis.com%2Fcss%3Ffamily%3DSarabun;" vertex="1" parent="YQWz01tPMp9xfPWSl0EE-34">
          <mxGeometry x="589.75" y="1349" width="82.5" height="30" as="geometry" />
        </mxCell>
        <mxCell id="YQWz01tPMp9xfPWSl0EE-214" style="edgeStyle=orthogonalEdgeStyle;rounded=0;orthogonalLoop=1;jettySize=auto;html=1;" edge="1" parent="YQWz01tPMp9xfPWSl0EE-34" source="YQWz01tPMp9xfPWSl0EE-215" target="YQWz01tPMp9xfPWSl0EE-230">
          <mxGeometry relative="1" as="geometry" />
        </mxCell>
        <mxCell id="YQWz01tPMp9xfPWSl0EE-215" value="แสดง b" style="shape=parallelogram;perimeter=parallelogramPerimeter;whiteSpace=wrap;html=1;fixedSize=1;" vertex="1" parent="YQWz01tPMp9xfPWSl0EE-34">
          <mxGeometry x="571" y="1419" width="120" height="40" as="geometry" />
        </mxCell>
        <mxCell id="YQWz01tPMp9xfPWSl0EE-216" style="edgeStyle=orthogonalEdgeStyle;rounded=0;orthogonalLoop=1;jettySize=auto;html=1;" edge="1" parent="YQWz01tPMp9xfPWSl0EE-34">
          <mxGeometry relative="1" as="geometry">
            <mxPoint x="630" y="1050" as="targetPoint" />
            <mxPoint x="207" y="1030" as="sourcePoint" />
            <Array as="points">
              <mxPoint x="207" y="1050" />
            </Array>
          </mxGeometry>
        </mxCell>
        <mxCell id="YQWz01tPMp9xfPWSl0EE-217" style="edgeStyle=orthogonalEdgeStyle;rounded=0;orthogonalLoop=1;jettySize=auto;html=1;" edge="1" parent="YQWz01tPMp9xfPWSl0EE-34">
          <mxGeometry relative="1" as="geometry">
            <mxPoint x="630" y="1150" as="targetPoint" />
            <mxPoint x="207" y="1130" as="sourcePoint" />
            <Array as="points">
              <mxPoint x="207" y="1150" />
            </Array>
          </mxGeometry>
        </mxCell>
        <mxCell id="YQWz01tPMp9xfPWSl0EE-218" style="edgeStyle=orthogonalEdgeStyle;rounded=0;orthogonalLoop=1;jettySize=auto;html=1;" edge="1" parent="YQWz01tPMp9xfPWSl0EE-34" source="YQWz01tPMp9xfPWSl0EE-123">
          <mxGeometry relative="1" as="geometry">
            <mxPoint x="632" y="1280" as="targetPoint" />
          </mxGeometry>
        </mxCell>
        <mxCell id="YQWz01tPMp9xfPWSl0EE-219" style="edgeStyle=orthogonalEdgeStyle;rounded=0;orthogonalLoop=1;jettySize=auto;html=1;" edge="1" parent="YQWz01tPMp9xfPWSl0EE-34">
          <mxGeometry relative="1" as="geometry">
            <mxPoint x="1220" y="950" as="targetPoint" />
            <mxPoint x="847" y="930" as="sourcePoint" />
            <Array as="points">
              <mxPoint x="847" y="950" />
            </Array>
          </mxGeometry>
        </mxCell>
        <mxCell id="YQWz01tPMp9xfPWSl0EE-220" style="edgeStyle=orthogonalEdgeStyle;rounded=0;orthogonalLoop=1;jettySize=auto;html=1;" edge="1" parent="YQWz01tPMp9xfPWSl0EE-34">
          <mxGeometry relative="1" as="geometry">
            <mxPoint x="974" y="950" as="targetPoint" />
            <mxPoint x="974" y="930" as="sourcePoint" />
          </mxGeometry>
        </mxCell>
        <mxCell id="YQWz01tPMp9xfPWSl0EE-221" style="edgeStyle=orthogonalEdgeStyle;rounded=0;orthogonalLoop=1;jettySize=auto;html=1;" edge="1" parent="YQWz01tPMp9xfPWSl0EE-34">
          <mxGeometry relative="1" as="geometry">
            <mxPoint x="1220" y="1049" as="targetPoint" />
            <mxPoint x="847" y="1029" as="sourcePoint" />
            <Array as="points">
              <mxPoint x="847" y="1049" />
            </Array>
          </mxGeometry>
        </mxCell>
        <mxCell id="YQWz01tPMp9xfPWSl0EE-222" style="edgeStyle=orthogonalEdgeStyle;rounded=0;orthogonalLoop=1;jettySize=auto;html=1;" edge="1" parent="YQWz01tPMp9xfPWSl0EE-34">
          <mxGeometry relative="1" as="geometry">
            <mxPoint x="974" y="1049" as="targetPoint" />
            <mxPoint x="974" y="1029" as="sourcePoint" />
          </mxGeometry>
        </mxCell>
        <mxCell id="YQWz01tPMp9xfPWSl0EE-223" style="edgeStyle=orthogonalEdgeStyle;rounded=0;orthogonalLoop=1;jettySize=auto;html=1;" edge="1" parent="YQWz01tPMp9xfPWSl0EE-34">
          <mxGeometry relative="1" as="geometry">
            <mxPoint x="1220" y="1150" as="targetPoint" />
            <mxPoint x="847" y="1130" as="sourcePoint" />
            <Array as="points">
              <mxPoint x="847" y="1150" />
            </Array>
          </mxGeometry>
        </mxCell>
        <mxCell id="YQWz01tPMp9xfPWSl0EE-224" style="edgeStyle=orthogonalEdgeStyle;rounded=0;orthogonalLoop=1;jettySize=auto;html=1;" edge="1" parent="YQWz01tPMp9xfPWSl0EE-34">
          <mxGeometry relative="1" as="geometry">
            <mxPoint x="974" y="1150" as="targetPoint" />
            <mxPoint x="974" y="1130" as="sourcePoint" />
          </mxGeometry>
        </mxCell>
        <mxCell id="YQWz01tPMp9xfPWSl0EE-225" style="edgeStyle=orthogonalEdgeStyle;rounded=0;orthogonalLoop=1;jettySize=auto;html=1;entryX=0.5;entryY=0;entryDx=0;entryDy=0;" edge="1" parent="YQWz01tPMp9xfPWSl0EE-34" source="YQWz01tPMp9xfPWSl0EE-226" target="YQWz01tPMp9xfPWSl0EE-333">
          <mxGeometry relative="1" as="geometry" />
        </mxCell>
        <mxCell id="YQWz01tPMp9xfPWSl0EE-350" style="edgeStyle=orthogonalEdgeStyle;rounded=0;orthogonalLoop=1;jettySize=auto;html=1;" edge="1" parent="YQWz01tPMp9xfPWSl0EE-34" source="YQWz01tPMp9xfPWSl0EE-226">
          <mxGeometry relative="1" as="geometry">
            <mxPoint x="540" y="543" as="targetPoint" />
          </mxGeometry>
        </mxCell>
        <mxCell id="YQWz01tPMp9xfPWSl0EE-226" value="int b = 0" style="rounded=0;whiteSpace=wrap;html=1;fontFamily=Sarabun;fontSource=https%3A%2F%2Ffonts.googleapis.com%2Fcss%3Ffamily%3DSarabun;" vertex="1" parent="YQWz01tPMp9xfPWSl0EE-34">
          <mxGeometry x="571.0100000000002" y="528" width="120" height="30" as="geometry" />
        </mxCell>
        <mxCell id="YQWz01tPMp9xfPWSl0EE-229" style="edgeStyle=orthogonalEdgeStyle;rounded=0;orthogonalLoop=1;jettySize=auto;html=1;entryX=0.5;entryY=0;entryDx=0;entryDy=0;" edge="1" parent="YQWz01tPMp9xfPWSl0EE-34" source="YQWz01tPMp9xfPWSl0EE-230" target="YQWz01tPMp9xfPWSl0EE-178">
          <mxGeometry relative="1" as="geometry" />
        </mxCell>
        <mxCell id="YQWz01tPMp9xfPWSl0EE-230" value="c = โค้ก + น้ำเขียว + อเมริกาโน่ + ลาเต้หวานเจี๊ยบ + เมล็ดทานตะวัน + ถั่วแปบ + จิ้นส้มหมก" style="rounded=0;whiteSpace=wrap;html=1;fontFamily=Sarabun;fontSource=https%3A%2F%2Ffonts.googleapis.com%2Fcss%3Ffamily%3DSarabun;" vertex="1" parent="YQWz01tPMp9xfPWSl0EE-34">
          <mxGeometry x="484.8800000000001" y="1499" width="292.25" height="30" as="geometry" />
        </mxCell>
        <mxCell id="YQWz01tPMp9xfPWSl0EE-237" value="ลาเต้หวานเจี๊ยบ" style="rounded=0;whiteSpace=wrap;html=1;" vertex="1" parent="YQWz01tPMp9xfPWSl0EE-34">
          <mxGeometry y="1147" width="120" height="60" as="geometry" />
        </mxCell>
        <mxCell id="YQWz01tPMp9xfPWSl0EE-324" value="จิ้นส้มหมก" style="rounded=0;whiteSpace=wrap;html=1;" vertex="1" parent="YQWz01tPMp9xfPWSl0EE-34">
          <mxGeometry x="663.1199999999999" y="1070" width="93.75" height="60" as="geometry" />
        </mxCell>
        <mxCell id="YQWz01tPMp9xfPWSl0EE-332" style="edgeStyle=orthogonalEdgeStyle;rounded=0;orthogonalLoop=1;jettySize=auto;html=1;" edge="1" parent="YQWz01tPMp9xfPWSl0EE-34" source="YQWz01tPMp9xfPWSl0EE-333" target="YQWz01tPMp9xfPWSl0EE-102">
          <mxGeometry relative="1" as="geometry" />
        </mxCell>
        <mxCell id="YQWz01tPMp9xfPWSl0EE-351" style="edgeStyle=orthogonalEdgeStyle;rounded=0;orthogonalLoop=1;jettySize=auto;html=1;" edge="1" parent="YQWz01tPMp9xfPWSl0EE-34" source="YQWz01tPMp9xfPWSl0EE-333" target="YQWz01tPMp9xfPWSl0EE-348">
          <mxGeometry relative="1" as="geometry" />
        </mxCell>
        <mxCell id="YQWz01tPMp9xfPWSl0EE-333" value="int c = 0" style="rounded=0;whiteSpace=wrap;html=1;fontFamily=Sarabun;fontSource=https%3A%2F%2Ffonts.googleapis.com%2Fcss%3Ffamily%3DSarabun;" vertex="1" parent="YQWz01tPMp9xfPWSl0EE-34">
          <mxGeometry x="570.75" y="587" width="120" height="30" as="geometry" />
        </mxCell>
        <mxCell id="YQWz01tPMp9xfPWSl0EE-89" value="" style="verticalLabelPosition=bottom;verticalAlign=top;html=1;shape=offPageConnector;rounded=0;size=0.5;" vertex="1" parent="YQWz01tPMp9xfPWSl0EE-34">
          <mxGeometry x="1673" y="122" width="30" height="30" as="geometry" />
        </mxCell>
        <mxCell id="YQWz01tPMp9xfPWSl0EE-90" style="edgeStyle=orthogonalEdgeStyle;rounded=0;orthogonalLoop=1;jettySize=auto;html=1;" edge="1" parent="YQWz01tPMp9xfPWSl0EE-34" source="YQWz01tPMp9xfPWSl0EE-91" target="YQWz01tPMp9xfPWSl0EE-233">
          <mxGeometry relative="1" as="geometry" />
        </mxCell>
        <mxCell id="YQWz01tPMp9xfPWSl0EE-91" value="ก" style="text;html=1;align=center;verticalAlign=middle;resizable=0;points=[];autosize=1;strokeColor=none;fillColor=none;" vertex="1" parent="YQWz01tPMp9xfPWSl0EE-34">
          <mxGeometry x="1673" y="122" width="30" height="30" as="geometry" />
        </mxCell>
        <mxCell id="YQWz01tPMp9xfPWSl0EE-92" style="edgeStyle=orthogonalEdgeStyle;rounded=0;orthogonalLoop=1;jettySize=auto;html=1;" edge="1" parent="YQWz01tPMp9xfPWSl0EE-34" source="YQWz01tPMp9xfPWSl0EE-93" target="YQWz01tPMp9xfPWSl0EE-340">
          <mxGeometry relative="1" as="geometry" />
        </mxCell>
        <mxCell id="YQWz01tPMp9xfPWSl0EE-93" value="ยอดขาย = a&lt;div&gt;จำนวนสินค้าที่ขายได้ =&amp;nbsp;&lt;span style=&quot;white-space: pre;&quot;&gt;&#x9;&lt;/span&gt;โค้ก, น้ำเขียว, อเมริกาโน่ , ลาเต้หวานเจี๊ยบ, เมล็ดทานตะวัน, ถั่วแปบ, จิ้นส้มหมก&lt;/div&gt;&lt;div&gt;เงินในตู้ แบงค์ที่เหลือ&lt;/div&gt;&lt;div&gt;เหรียญที่เหลือ&lt;/div&gt;&lt;div&gt;ยอดเงิน&lt;/div&gt;" style="shape=parallelogram;perimeter=parallelogramPerimeter;whiteSpace=wrap;html=1;fixedSize=1;fontFamily=Sarabun;fontSource=https%3A%2F%2Ffonts.googleapis.com%2Fcss%3Ffamily%3DSarabun;" vertex="1" parent="YQWz01tPMp9xfPWSl0EE-34">
          <mxGeometry x="1554" y="1469" width="268" height="110" as="geometry" />
        </mxCell>
        <mxCell id="YQWz01tPMp9xfPWSl0EE-94" style="edgeStyle=orthogonalEdgeStyle;rounded=0;orthogonalLoop=1;jettySize=auto;html=1;entryX=1;entryY=0.5;entryDx=0;entryDy=0;" edge="1" parent="YQWz01tPMp9xfPWSl0EE-34" source="YQWz01tPMp9xfPWSl0EE-96" target="YQWz01tPMp9xfPWSl0EE-98">
          <mxGeometry relative="1" as="geometry" />
        </mxCell>
        <mxCell id="YQWz01tPMp9xfPWSl0EE-95" style="edgeStyle=orthogonalEdgeStyle;rounded=0;orthogonalLoop=1;jettySize=auto;html=1;entryX=0;entryY=0.5;entryDx=0;entryDy=0;" edge="1" parent="YQWz01tPMp9xfPWSl0EE-34" source="YQWz01tPMp9xfPWSl0EE-96" target="YQWz01tPMp9xfPWSl0EE-240">
          <mxGeometry relative="1" as="geometry" />
        </mxCell>
        <mxCell id="YQWz01tPMp9xfPWSl0EE-96" value="จ่ายเงิน" style="rhombus;whiteSpace=wrap;html=1;" vertex="1" parent="YQWz01tPMp9xfPWSl0EE-34">
          <mxGeometry x="1810" y="272" width="80" height="80" as="geometry" />
        </mxCell>
        <mxCell id="YQWz01tPMp9xfPWSl0EE-97" style="edgeStyle=orthogonalEdgeStyle;rounded=0;orthogonalLoop=1;jettySize=auto;html=1;" edge="1" parent="YQWz01tPMp9xfPWSl0EE-34" source="YQWz01tPMp9xfPWSl0EE-98" target="YQWz01tPMp9xfPWSl0EE-100">
          <mxGeometry relative="1" as="geometry" />
        </mxCell>
        <mxCell id="YQWz01tPMp9xfPWSl0EE-98" value="qr code" style="rounded=0;whiteSpace=wrap;html=1;" vertex="1" parent="YQWz01tPMp9xfPWSl0EE-34">
          <mxGeometry x="1638" y="292" width="100" height="40" as="geometry" />
        </mxCell>
        <mxCell id="YQWz01tPMp9xfPWSl0EE-99" style="edgeStyle=orthogonalEdgeStyle;rounded=0;orthogonalLoop=1;jettySize=auto;html=1;entryX=0.5;entryY=0;entryDx=0;entryDy=0;" edge="1" parent="YQWz01tPMp9xfPWSl0EE-34" source="YQWz01tPMp9xfPWSl0EE-100" target="YQWz01tPMp9xfPWSl0EE-339">
          <mxGeometry relative="1" as="geometry" />
        </mxCell>
        <mxCell id="YQWz01tPMp9xfPWSl0EE-100" value="แสดง qr code" style="shape=parallelogram;perimeter=parallelogramPerimeter;whiteSpace=wrap;html=1;fixedSize=1;" vertex="1" parent="YQWz01tPMp9xfPWSl0EE-34">
          <mxGeometry x="1628" y="377" width="120" height="60" as="geometry" />
        </mxCell>
        <mxCell id="YQWz01tPMp9xfPWSl0EE-231" style="edgeStyle=orthogonalEdgeStyle;rounded=0;orthogonalLoop=1;jettySize=auto;html=1;entryX=0.5;entryY=0;entryDx=0;entryDy=0;" edge="1" parent="YQWz01tPMp9xfPWSl0EE-34" source="YQWz01tPMp9xfPWSl0EE-233" target="YQWz01tPMp9xfPWSl0EE-96">
          <mxGeometry relative="1" as="geometry" />
        </mxCell>
        <mxCell id="YQWz01tPMp9xfPWSl0EE-232" style="edgeStyle=orthogonalEdgeStyle;rounded=0;orthogonalLoop=1;jettySize=auto;html=1;entryX=1;entryY=0.5;entryDx=0;entryDy=0;" edge="1" parent="YQWz01tPMp9xfPWSl0EE-34" source="YQWz01tPMp9xfPWSl0EE-233" target="YQWz01tPMp9xfPWSl0EE-234">
          <mxGeometry relative="1" as="geometry" />
        </mxCell>
        <mxCell id="YQWz01tPMp9xfPWSl0EE-233" value="c &amp;gt; 0" style="rhombus;whiteSpace=wrap;html=1;" vertex="1" parent="YQWz01tPMp9xfPWSl0EE-34">
          <mxGeometry x="1648" y="187" width="80" height="80" as="geometry" />
        </mxCell>
        <mxCell id="YQWz01tPMp9xfPWSl0EE-234" value="ยกเลิก กลับ หน้าหลัก" style="rounded=0;whiteSpace=wrap;html=1;" vertex="1" parent="YQWz01tPMp9xfPWSl0EE-34">
          <mxGeometry x="1460" y="207" width="120" height="40" as="geometry" />
        </mxCell>
        <mxCell id="YQWz01tPMp9xfPWSl0EE-235" value="ใช่" style="text;html=1;align=center;verticalAlign=middle;resizable=0;points=[];autosize=1;strokeColor=none;fillColor=none;" vertex="1" parent="YQWz01tPMp9xfPWSl0EE-34">
          <mxGeometry x="1760" y="207" width="40" height="30" as="geometry" />
        </mxCell>
        <mxCell id="YQWz01tPMp9xfPWSl0EE-236" value="ไม่" style="text;html=1;align=center;verticalAlign=middle;resizable=0;points=[];autosize=1;strokeColor=none;fillColor=none;" vertex="1" parent="YQWz01tPMp9xfPWSl0EE-34">
          <mxGeometry x="1590" y="197" width="40" height="30" as="geometry" />
        </mxCell>
        <mxCell id="YQWz01tPMp9xfPWSl0EE-238" style="edgeStyle=orthogonalEdgeStyle;rounded=0;orthogonalLoop=1;jettySize=auto;html=1;entryX=0.5;entryY=0;entryDx=0;entryDy=0;" edge="1" parent="YQWz01tPMp9xfPWSl0EE-34" source="YQWz01tPMp9xfPWSl0EE-240" target="YQWz01tPMp9xfPWSl0EE-241">
          <mxGeometry relative="1" as="geometry">
            <Array as="points">
              <mxPoint x="2000" y="367" />
              <mxPoint x="1890" y="367" />
            </Array>
          </mxGeometry>
        </mxCell>
        <mxCell id="YQWz01tPMp9xfPWSl0EE-239" style="edgeStyle=orthogonalEdgeStyle;rounded=0;orthogonalLoop=1;jettySize=auto;html=1;entryX=0.5;entryY=0;entryDx=0;entryDy=0;" edge="1" parent="YQWz01tPMp9xfPWSl0EE-34" source="YQWz01tPMp9xfPWSl0EE-240" target="YQWz01tPMp9xfPWSl0EE-243">
          <mxGeometry relative="1" as="geometry" />
        </mxCell>
        <mxCell id="YQWz01tPMp9xfPWSl0EE-240" value="เงินสด" style="rhombus;whiteSpace=wrap;html=1;" vertex="1" parent="YQWz01tPMp9xfPWSl0EE-34">
          <mxGeometry x="1960" y="272" width="80" height="80" as="geometry" />
        </mxCell>
        <mxCell id="YQWz01tPMp9xfPWSl0EE-241" value="ครบ" style="rounded=0;whiteSpace=wrap;html=1;" vertex="1" parent="YQWz01tPMp9xfPWSl0EE-34">
          <mxGeometry x="1840" y="397" width="100" height="40" as="geometry" />
        </mxCell>
        <mxCell id="YQWz01tPMp9xfPWSl0EE-242" style="edgeStyle=orthogonalEdgeStyle;rounded=0;orthogonalLoop=1;jettySize=auto;html=1;entryX=0.5;entryY=0;entryDx=0;entryDy=0;" edge="1" parent="YQWz01tPMp9xfPWSl0EE-34" source="YQWz01tPMp9xfPWSl0EE-243" target="YQWz01tPMp9xfPWSl0EE-246">
          <mxGeometry relative="1" as="geometry" />
        </mxCell>
        <mxCell id="YQWz01tPMp9xfPWSl0EE-243" value="จำนวนเงิน - a = เงินทอน" style="rounded=0;whiteSpace=wrap;html=1;" vertex="1" parent="YQWz01tPMp9xfPWSl0EE-34">
          <mxGeometry x="2060" y="397" width="130" height="40" as="geometry" />
        </mxCell>
        <mxCell id="YQWz01tPMp9xfPWSl0EE-244" style="edgeStyle=orthogonalEdgeStyle;rounded=0;orthogonalLoop=1;jettySize=auto;html=1;entryX=0;entryY=0.5;entryDx=0;entryDy=0;" edge="1" parent="YQWz01tPMp9xfPWSl0EE-34" source="YQWz01tPMp9xfPWSl0EE-246" target="YQWz01tPMp9xfPWSl0EE-249">
          <mxGeometry relative="1" as="geometry" />
        </mxCell>
        <mxCell id="YQWz01tPMp9xfPWSl0EE-245" style="edgeStyle=orthogonalEdgeStyle;rounded=0;orthogonalLoop=1;jettySize=auto;html=1;entryX=0;entryY=0.5;entryDx=0;entryDy=0;" edge="1" parent="YQWz01tPMp9xfPWSl0EE-34" source="YQWz01tPMp9xfPWSl0EE-246" target="YQWz01tPMp9xfPWSl0EE-310">
          <mxGeometry relative="1" as="geometry">
            <Array as="points">
              <mxPoint x="2125" y="587" />
              <mxPoint x="2160" y="587" />
              <mxPoint x="2160" y="586" />
            </Array>
          </mxGeometry>
        </mxCell>
        <mxCell id="YQWz01tPMp9xfPWSl0EE-246" value="&amp;gt;= 500" style="rhombus;whiteSpace=wrap;html=1;" vertex="1" parent="YQWz01tPMp9xfPWSl0EE-34">
          <mxGeometry x="2085" y="477" width="80" height="80" as="geometry" />
        </mxCell>
        <mxCell id="YQWz01tPMp9xfPWSl0EE-247" style="edgeStyle=orthogonalEdgeStyle;rounded=0;orthogonalLoop=1;jettySize=auto;html=1;entryX=0;entryY=0.5;entryDx=0;entryDy=0;" edge="1" parent="YQWz01tPMp9xfPWSl0EE-34" source="YQWz01tPMp9xfPWSl0EE-249" target="YQWz01tPMp9xfPWSl0EE-270">
          <mxGeometry relative="1" as="geometry" />
        </mxCell>
        <mxCell id="YQWz01tPMp9xfPWSl0EE-248" style="edgeStyle=orthogonalEdgeStyle;rounded=0;orthogonalLoop=1;jettySize=auto;html=1;entryX=0.5;entryY=0;entryDx=0;entryDy=0;" edge="1" parent="YQWz01tPMp9xfPWSl0EE-34" source="YQWz01tPMp9xfPWSl0EE-249" target="YQWz01tPMp9xfPWSl0EE-310">
          <mxGeometry relative="1" as="geometry">
            <Array as="points">
              <mxPoint x="2175" y="557" />
            </Array>
          </mxGeometry>
        </mxCell>
        <mxCell id="YQWz01tPMp9xfPWSl0EE-249" value="500 &amp;gt;= 1" style="rhombus;whiteSpace=wrap;html=1;" vertex="1" parent="YQWz01tPMp9xfPWSl0EE-34">
          <mxGeometry x="2210" y="477" width="80" height="80" as="geometry" />
        </mxCell>
        <mxCell id="YQWz01tPMp9xfPWSl0EE-250" style="edgeStyle=orthogonalEdgeStyle;rounded=0;orthogonalLoop=1;jettySize=auto;html=1;entryX=0;entryY=0.5;entryDx=0;entryDy=0;" edge="1" parent="YQWz01tPMp9xfPWSl0EE-34" source="YQWz01tPMp9xfPWSl0EE-252" target="YQWz01tPMp9xfPWSl0EE-312">
          <mxGeometry relative="1" as="geometry" />
        </mxCell>
        <mxCell id="YQWz01tPMp9xfPWSl0EE-251" style="edgeStyle=orthogonalEdgeStyle;rounded=0;orthogonalLoop=1;jettySize=auto;html=1;entryX=0;entryY=0.5;entryDx=0;entryDy=0;" edge="1" parent="YQWz01tPMp9xfPWSl0EE-34" source="YQWz01tPMp9xfPWSl0EE-252" target="YQWz01tPMp9xfPWSl0EE-258">
          <mxGeometry relative="1" as="geometry" />
        </mxCell>
        <mxCell id="YQWz01tPMp9xfPWSl0EE-252" value="&amp;gt;= 100" style="rhombus;whiteSpace=wrap;html=1;" vertex="1" parent="YQWz01tPMp9xfPWSl0EE-34">
          <mxGeometry x="2085" y="632" width="80" height="80" as="geometry" />
        </mxCell>
        <mxCell id="YQWz01tPMp9xfPWSl0EE-253" style="edgeStyle=orthogonalEdgeStyle;rounded=0;orthogonalLoop=1;jettySize=auto;html=1;entryX=0;entryY=0.5;entryDx=0;entryDy=0;" edge="1" parent="YQWz01tPMp9xfPWSl0EE-34" source="YQWz01tPMp9xfPWSl0EE-255" target="YQWz01tPMp9xfPWSl0EE-261">
          <mxGeometry relative="1" as="geometry" />
        </mxCell>
        <mxCell id="YQWz01tPMp9xfPWSl0EE-254" style="edgeStyle=orthogonalEdgeStyle;rounded=0;orthogonalLoop=1;jettySize=auto;html=1;entryX=0;entryY=0.5;entryDx=0;entryDy=0;" edge="1" parent="YQWz01tPMp9xfPWSl0EE-34" source="YQWz01tPMp9xfPWSl0EE-255" target="YQWz01tPMp9xfPWSl0EE-314">
          <mxGeometry relative="1" as="geometry" />
        </mxCell>
        <mxCell id="YQWz01tPMp9xfPWSl0EE-255" value="&amp;gt;= 50" style="rhombus;whiteSpace=wrap;html=1;" vertex="1" parent="YQWz01tPMp9xfPWSl0EE-34">
          <mxGeometry x="2085" y="783" width="80" height="80" as="geometry" />
        </mxCell>
        <mxCell id="YQWz01tPMp9xfPWSl0EE-256" style="edgeStyle=orthogonalEdgeStyle;rounded=0;orthogonalLoop=1;jettySize=auto;html=1;entryX=0.5;entryY=0;entryDx=0;entryDy=0;" edge="1" parent="YQWz01tPMp9xfPWSl0EE-34" source="YQWz01tPMp9xfPWSl0EE-258" target="YQWz01tPMp9xfPWSl0EE-312">
          <mxGeometry relative="1" as="geometry">
            <Array as="points">
              <mxPoint x="2250" y="717" />
              <mxPoint x="2175" y="717" />
            </Array>
          </mxGeometry>
        </mxCell>
        <mxCell id="YQWz01tPMp9xfPWSl0EE-257" style="edgeStyle=orthogonalEdgeStyle;rounded=0;orthogonalLoop=1;jettySize=auto;html=1;entryX=0;entryY=0.5;entryDx=0;entryDy=0;" edge="1" parent="YQWz01tPMp9xfPWSl0EE-34" source="YQWz01tPMp9xfPWSl0EE-258" target="YQWz01tPMp9xfPWSl0EE-274">
          <mxGeometry relative="1" as="geometry" />
        </mxCell>
        <mxCell id="YQWz01tPMp9xfPWSl0EE-258" value="100 &amp;gt;= 1" style="rhombus;whiteSpace=wrap;html=1;" vertex="1" parent="YQWz01tPMp9xfPWSl0EE-34">
          <mxGeometry x="2210" y="632" width="80" height="80" as="geometry" />
        </mxCell>
        <mxCell id="YQWz01tPMp9xfPWSl0EE-259" style="edgeStyle=orthogonalEdgeStyle;rounded=0;orthogonalLoop=1;jettySize=auto;html=1;" edge="1" parent="YQWz01tPMp9xfPWSl0EE-34" source="YQWz01tPMp9xfPWSl0EE-261" target="YQWz01tPMp9xfPWSl0EE-278">
          <mxGeometry relative="1" as="geometry" />
        </mxCell>
        <mxCell id="YQWz01tPMp9xfPWSl0EE-260" style="edgeStyle=orthogonalEdgeStyle;rounded=0;orthogonalLoop=1;jettySize=auto;html=1;entryX=0.5;entryY=0;entryDx=0;entryDy=0;" edge="1" parent="YQWz01tPMp9xfPWSl0EE-34" source="YQWz01tPMp9xfPWSl0EE-261" target="YQWz01tPMp9xfPWSl0EE-314">
          <mxGeometry relative="1" as="geometry">
            <Array as="points">
              <mxPoint x="2250" y="867" />
              <mxPoint x="2175" y="867" />
            </Array>
          </mxGeometry>
        </mxCell>
        <mxCell id="YQWz01tPMp9xfPWSl0EE-261" value="50 &amp;gt;= 1" style="rhombus;whiteSpace=wrap;html=1;" vertex="1" parent="YQWz01tPMp9xfPWSl0EE-34">
          <mxGeometry x="2210" y="783" width="80" height="80" as="geometry" />
        </mxCell>
        <mxCell id="YQWz01tPMp9xfPWSl0EE-262" style="edgeStyle=orthogonalEdgeStyle;rounded=0;orthogonalLoop=1;jettySize=auto;html=1;entryX=0;entryY=0.5;entryDx=0;entryDy=0;" edge="1" parent="YQWz01tPMp9xfPWSl0EE-34" target="YQWz01tPMp9xfPWSl0EE-294">
          <mxGeometry relative="1" as="geometry">
            <mxPoint x="2290" y="1455" as="sourcePoint" />
          </mxGeometry>
        </mxCell>
        <mxCell id="YQWz01tPMp9xfPWSl0EE-263" style="edgeStyle=orthogonalEdgeStyle;rounded=0;orthogonalLoop=1;jettySize=auto;html=1;" edge="1" parent="YQWz01tPMp9xfPWSl0EE-34" source="YQWz01tPMp9xfPWSl0EE-265" target="YQWz01tPMp9xfPWSl0EE-268">
          <mxGeometry relative="1" as="geometry" />
        </mxCell>
        <mxCell id="YQWz01tPMp9xfPWSl0EE-264" style="edgeStyle=orthogonalEdgeStyle;rounded=0;orthogonalLoop=1;jettySize=auto;html=1;entryX=0;entryY=0.5;entryDx=0;entryDy=0;" edge="1" parent="YQWz01tPMp9xfPWSl0EE-34" source="YQWz01tPMp9xfPWSl0EE-265" target="YQWz01tPMp9xfPWSl0EE-319">
          <mxGeometry relative="1" as="geometry">
            <Array as="points">
              <mxPoint x="2123" y="1367" />
            </Array>
          </mxGeometry>
        </mxCell>
        <mxCell id="YQWz01tPMp9xfPWSl0EE-265" value="&amp;gt;= 9" style="rhombus;whiteSpace=wrap;html=1;" vertex="1" parent="YQWz01tPMp9xfPWSl0EE-34">
          <mxGeometry x="2082.5" y="1267" width="80" height="80" as="geometry" />
        </mxCell>
        <mxCell id="YQWz01tPMp9xfPWSl0EE-266" style="edgeStyle=orthogonalEdgeStyle;rounded=0;orthogonalLoop=1;jettySize=auto;html=1;entryX=0;entryY=0.5;entryDx=0;entryDy=0;" edge="1" parent="YQWz01tPMp9xfPWSl0EE-34" source="YQWz01tPMp9xfPWSl0EE-268" target="YQWz01tPMp9xfPWSl0EE-290">
          <mxGeometry relative="1" as="geometry" />
        </mxCell>
        <mxCell id="YQWz01tPMp9xfPWSl0EE-267" style="edgeStyle=orthogonalEdgeStyle;rounded=0;orthogonalLoop=1;jettySize=auto;html=1;entryX=0.5;entryY=0;entryDx=0;entryDy=0;" edge="1" parent="YQWz01tPMp9xfPWSl0EE-34" source="YQWz01tPMp9xfPWSl0EE-268" target="YQWz01tPMp9xfPWSl0EE-319">
          <mxGeometry relative="1" as="geometry">
            <Array as="points">
              <mxPoint x="2175" y="1337" />
            </Array>
          </mxGeometry>
        </mxCell>
        <mxCell id="YQWz01tPMp9xfPWSl0EE-268" value="5 &amp;gt;= 1" style="rhombus;whiteSpace=wrap;html=1;" vertex="1" parent="YQWz01tPMp9xfPWSl0EE-34">
          <mxGeometry x="2220" y="1267" width="80" height="80" as="geometry" />
        </mxCell>
        <mxCell id="YQWz01tPMp9xfPWSl0EE-269" style="edgeStyle=orthogonalEdgeStyle;rounded=0;orthogonalLoop=1;jettySize=auto;html=1;entryX=0;entryY=0.5;entryDx=0;entryDy=0;" edge="1" parent="YQWz01tPMp9xfPWSl0EE-34" source="YQWz01tPMp9xfPWSl0EE-270" target="YQWz01tPMp9xfPWSl0EE-272">
          <mxGeometry relative="1" as="geometry" />
        </mxCell>
        <mxCell id="YQWz01tPMp9xfPWSl0EE-270" value="ทอนแบงค์ 500" style="rounded=0;whiteSpace=wrap;html=1;" vertex="1" parent="YQWz01tPMp9xfPWSl0EE-34">
          <mxGeometry x="2340" y="497" width="100" height="40" as="geometry" />
        </mxCell>
        <mxCell id="YQWz01tPMp9xfPWSl0EE-271" style="edgeStyle=orthogonalEdgeStyle;rounded=0;orthogonalLoop=1;jettySize=auto;html=1;entryX=1;entryY=0.5;entryDx=0;entryDy=0;" edge="1" parent="YQWz01tPMp9xfPWSl0EE-34" source="YQWz01tPMp9xfPWSl0EE-272" target="YQWz01tPMp9xfPWSl0EE-310">
          <mxGeometry relative="1" as="geometry">
            <Array as="points">
              <mxPoint x="2565" y="586" />
            </Array>
          </mxGeometry>
        </mxCell>
        <mxCell id="YQWz01tPMp9xfPWSl0EE-272" value="เงินทอน - 500 = คงเหลือ" style="rounded=0;whiteSpace=wrap;html=1;" vertex="1" parent="YQWz01tPMp9xfPWSl0EE-34">
          <mxGeometry x="2515" y="497" width="100" height="40" as="geometry" />
        </mxCell>
        <mxCell id="YQWz01tPMp9xfPWSl0EE-273" style="edgeStyle=orthogonalEdgeStyle;rounded=0;orthogonalLoop=1;jettySize=auto;html=1;" edge="1" parent="YQWz01tPMp9xfPWSl0EE-34" source="YQWz01tPMp9xfPWSl0EE-274" target="YQWz01tPMp9xfPWSl0EE-276">
          <mxGeometry relative="1" as="geometry" />
        </mxCell>
        <mxCell id="YQWz01tPMp9xfPWSl0EE-274" value="ทอนแบงค์ 100" style="rounded=0;whiteSpace=wrap;html=1;" vertex="1" parent="YQWz01tPMp9xfPWSl0EE-34">
          <mxGeometry x="2340" y="652" width="100" height="40" as="geometry" />
        </mxCell>
        <mxCell id="YQWz01tPMp9xfPWSl0EE-275" style="edgeStyle=orthogonalEdgeStyle;rounded=0;orthogonalLoop=1;jettySize=auto;html=1;entryX=1;entryY=0.5;entryDx=0;entryDy=0;" edge="1" parent="YQWz01tPMp9xfPWSl0EE-34" source="YQWz01tPMp9xfPWSl0EE-276" target="YQWz01tPMp9xfPWSl0EE-312">
          <mxGeometry relative="1" as="geometry">
            <Array as="points">
              <mxPoint x="2565" y="747" />
              <mxPoint x="2350" y="747" />
              <mxPoint x="2350" y="746" />
            </Array>
          </mxGeometry>
        </mxCell>
        <mxCell id="YQWz01tPMp9xfPWSl0EE-276" value="เงินทอน - 100 = คงเหลือ" style="rounded=0;whiteSpace=wrap;html=1;" vertex="1" parent="YQWz01tPMp9xfPWSl0EE-34">
          <mxGeometry x="2515" y="652" width="100" height="40" as="geometry" />
        </mxCell>
        <mxCell id="YQWz01tPMp9xfPWSl0EE-277" style="edgeStyle=orthogonalEdgeStyle;rounded=0;orthogonalLoop=1;jettySize=auto;html=1;entryX=0;entryY=0.5;entryDx=0;entryDy=0;" edge="1" parent="YQWz01tPMp9xfPWSl0EE-34" source="YQWz01tPMp9xfPWSl0EE-278" target="YQWz01tPMp9xfPWSl0EE-280">
          <mxGeometry relative="1" as="geometry" />
        </mxCell>
        <mxCell id="YQWz01tPMp9xfPWSl0EE-278" value="ทอนแบงค์ 50" style="rounded=0;whiteSpace=wrap;html=1;" vertex="1" parent="YQWz01tPMp9xfPWSl0EE-34">
          <mxGeometry x="2340" y="803" width="100" height="40" as="geometry" />
        </mxCell>
        <mxCell id="YQWz01tPMp9xfPWSl0EE-279" style="edgeStyle=orthogonalEdgeStyle;rounded=0;orthogonalLoop=1;jettySize=auto;html=1;entryX=1;entryY=0.5;entryDx=0;entryDy=0;" edge="1" parent="YQWz01tPMp9xfPWSl0EE-34" source="YQWz01tPMp9xfPWSl0EE-280" target="YQWz01tPMp9xfPWSl0EE-314">
          <mxGeometry relative="1" as="geometry">
            <Array as="points">
              <mxPoint x="2560" y="904" />
            </Array>
          </mxGeometry>
        </mxCell>
        <mxCell id="YQWz01tPMp9xfPWSl0EE-280" value="เงินทอน - 50 = คงเหลือ" style="rounded=0;whiteSpace=wrap;html=1;" vertex="1" parent="YQWz01tPMp9xfPWSl0EE-34">
          <mxGeometry x="2510" y="803" width="100" height="40" as="geometry" />
        </mxCell>
        <mxCell id="YQWz01tPMp9xfPWSl0EE-281" style="edgeStyle=orthogonalEdgeStyle;rounded=0;orthogonalLoop=1;jettySize=auto;html=1;" edge="1" parent="YQWz01tPMp9xfPWSl0EE-34" source="YQWz01tPMp9xfPWSl0EE-282" target="YQWz01tPMp9xfPWSl0EE-284">
          <mxGeometry relative="1" as="geometry" />
        </mxCell>
        <mxCell id="YQWz01tPMp9xfPWSl0EE-282" value="ทอนแบงค์ 20" style="rounded=0;whiteSpace=wrap;html=1;" vertex="1" parent="YQWz01tPMp9xfPWSl0EE-34">
          <mxGeometry x="2340" y="966" width="100" height="42" as="geometry" />
        </mxCell>
        <mxCell id="YQWz01tPMp9xfPWSl0EE-283" style="edgeStyle=orthogonalEdgeStyle;rounded=0;orthogonalLoop=1;jettySize=auto;html=1;entryX=1;entryY=0.5;entryDx=0;entryDy=0;" edge="1" parent="YQWz01tPMp9xfPWSl0EE-34" source="YQWz01tPMp9xfPWSl0EE-284" target="YQWz01tPMp9xfPWSl0EE-315">
          <mxGeometry relative="1" as="geometry">
            <Array as="points">
              <mxPoint x="2560" y="1044" />
            </Array>
          </mxGeometry>
        </mxCell>
        <mxCell id="YQWz01tPMp9xfPWSl0EE-284" value="เงินทอน - 20 = คงเหลือ" style="rounded=0;whiteSpace=wrap;html=1;" vertex="1" parent="YQWz01tPMp9xfPWSl0EE-34">
          <mxGeometry x="2510" y="967" width="100" height="40" as="geometry" />
        </mxCell>
        <mxCell id="YQWz01tPMp9xfPWSl0EE-285" style="edgeStyle=orthogonalEdgeStyle;rounded=0;orthogonalLoop=1;jettySize=auto;html=1;" edge="1" parent="YQWz01tPMp9xfPWSl0EE-34" source="YQWz01tPMp9xfPWSl0EE-286" target="YQWz01tPMp9xfPWSl0EE-288">
          <mxGeometry relative="1" as="geometry" />
        </mxCell>
        <mxCell id="YQWz01tPMp9xfPWSl0EE-286" value="ทอนเหรียญ 10" style="rounded=0;whiteSpace=wrap;html=1;" vertex="1" parent="YQWz01tPMp9xfPWSl0EE-34">
          <mxGeometry x="2340" y="1117" width="100" height="42" as="geometry" />
        </mxCell>
        <mxCell id="YQWz01tPMp9xfPWSl0EE-287" style="edgeStyle=orthogonalEdgeStyle;rounded=0;orthogonalLoop=1;jettySize=auto;html=1;entryX=1;entryY=0.5;entryDx=0;entryDy=0;" edge="1" parent="YQWz01tPMp9xfPWSl0EE-34" source="YQWz01tPMp9xfPWSl0EE-288" target="YQWz01tPMp9xfPWSl0EE-317">
          <mxGeometry relative="1" as="geometry">
            <Array as="points">
              <mxPoint x="2560" y="1212" />
            </Array>
          </mxGeometry>
        </mxCell>
        <mxCell id="YQWz01tPMp9xfPWSl0EE-288" value="เงินทอน - 10 = คงเหลือ" style="rounded=0;whiteSpace=wrap;html=1;" vertex="1" parent="YQWz01tPMp9xfPWSl0EE-34">
          <mxGeometry x="2510" y="1118" width="100" height="40" as="geometry" />
        </mxCell>
        <mxCell id="YQWz01tPMp9xfPWSl0EE-289" style="edgeStyle=orthogonalEdgeStyle;rounded=0;orthogonalLoop=1;jettySize=auto;html=1;" edge="1" parent="YQWz01tPMp9xfPWSl0EE-34" source="YQWz01tPMp9xfPWSl0EE-290" target="YQWz01tPMp9xfPWSl0EE-292">
          <mxGeometry relative="1" as="geometry" />
        </mxCell>
        <mxCell id="YQWz01tPMp9xfPWSl0EE-290" value="ทอนเหรียญ 5" style="rounded=0;whiteSpace=wrap;html=1;" vertex="1" parent="YQWz01tPMp9xfPWSl0EE-34">
          <mxGeometry x="2340" y="1285" width="100" height="42" as="geometry" />
        </mxCell>
        <mxCell id="YQWz01tPMp9xfPWSl0EE-291" style="edgeStyle=orthogonalEdgeStyle;rounded=0;orthogonalLoop=1;jettySize=auto;html=1;entryX=1;entryY=0.5;entryDx=0;entryDy=0;" edge="1" parent="YQWz01tPMp9xfPWSl0EE-34" source="YQWz01tPMp9xfPWSl0EE-292" target="YQWz01tPMp9xfPWSl0EE-319">
          <mxGeometry relative="1" as="geometry">
            <Array as="points">
              <mxPoint x="2540" y="1367" />
              <mxPoint x="2190" y="1367" />
            </Array>
          </mxGeometry>
        </mxCell>
        <mxCell id="YQWz01tPMp9xfPWSl0EE-292" value="เงินทอน - 5 = คงเหลือ" style="rounded=0;whiteSpace=wrap;html=1;" vertex="1" parent="YQWz01tPMp9xfPWSl0EE-34">
          <mxGeometry x="2490" y="1286" width="100" height="40" as="geometry" />
        </mxCell>
        <mxCell id="YQWz01tPMp9xfPWSl0EE-293" style="edgeStyle=orthogonalEdgeStyle;rounded=0;orthogonalLoop=1;jettySize=auto;html=1;entryX=0;entryY=0.5;entryDx=0;entryDy=0;" edge="1" parent="YQWz01tPMp9xfPWSl0EE-34" source="YQWz01tPMp9xfPWSl0EE-294" target="YQWz01tPMp9xfPWSl0EE-296">
          <mxGeometry relative="1" as="geometry" />
        </mxCell>
        <mxCell id="YQWz01tPMp9xfPWSl0EE-294" value="ทอนเหรียญ 1" style="rounded=0;whiteSpace=wrap;html=1;" vertex="1" parent="YQWz01tPMp9xfPWSl0EE-34">
          <mxGeometry x="2340" y="1434" width="100" height="42" as="geometry" />
        </mxCell>
        <mxCell id="YQWz01tPMp9xfPWSl0EE-295" style="edgeStyle=orthogonalEdgeStyle;rounded=0;orthogonalLoop=1;jettySize=auto;html=1;entryX=1;entryY=0.5;entryDx=0;entryDy=0;" edge="1" parent="YQWz01tPMp9xfPWSl0EE-34" source="YQWz01tPMp9xfPWSl0EE-296" target="YQWz01tPMp9xfPWSl0EE-326">
          <mxGeometry relative="1" as="geometry">
            <Array as="points">
              <mxPoint x="2560" y="1537" />
              <mxPoint x="2020" y="1537" />
              <mxPoint x="2020" y="837" />
            </Array>
          </mxGeometry>
        </mxCell>
        <mxCell id="YQWz01tPMp9xfPWSl0EE-296" value="เงินทอน - 1 = คงเหลือ" style="rounded=0;whiteSpace=wrap;html=1;" vertex="1" parent="YQWz01tPMp9xfPWSl0EE-34">
          <mxGeometry x="2510" y="1434" width="100" height="40" as="geometry" />
        </mxCell>
        <mxCell id="YQWz01tPMp9xfPWSl0EE-297" style="edgeStyle=orthogonalEdgeStyle;rounded=0;orthogonalLoop=1;jettySize=auto;html=1;" edge="1" parent="YQWz01tPMp9xfPWSl0EE-34" source="YQWz01tPMp9xfPWSl0EE-299" target="YQWz01tPMp9xfPWSl0EE-302">
          <mxGeometry relative="1" as="geometry" />
        </mxCell>
        <mxCell id="YQWz01tPMp9xfPWSl0EE-298" style="edgeStyle=orthogonalEdgeStyle;rounded=0;orthogonalLoop=1;jettySize=auto;html=1;entryX=0;entryY=0.5;entryDx=0;entryDy=0;" edge="1" parent="YQWz01tPMp9xfPWSl0EE-34" source="YQWz01tPMp9xfPWSl0EE-299" target="YQWz01tPMp9xfPWSl0EE-315">
          <mxGeometry relative="1" as="geometry">
            <Array as="points">
              <mxPoint x="2125" y="1044" />
            </Array>
          </mxGeometry>
        </mxCell>
        <mxCell id="YQWz01tPMp9xfPWSl0EE-299" value="&amp;gt;= 20" style="rhombus;whiteSpace=wrap;html=1;" vertex="1" parent="YQWz01tPMp9xfPWSl0EE-34">
          <mxGeometry x="2085" y="947" width="80" height="80" as="geometry" />
        </mxCell>
        <mxCell id="YQWz01tPMp9xfPWSl0EE-300" style="edgeStyle=orthogonalEdgeStyle;rounded=0;orthogonalLoop=1;jettySize=auto;html=1;entryX=0;entryY=0.5;entryDx=0;entryDy=0;" edge="1" parent="YQWz01tPMp9xfPWSl0EE-34" source="YQWz01tPMp9xfPWSl0EE-302" target="YQWz01tPMp9xfPWSl0EE-282">
          <mxGeometry relative="1" as="geometry" />
        </mxCell>
        <mxCell id="YQWz01tPMp9xfPWSl0EE-301" style="edgeStyle=orthogonalEdgeStyle;rounded=0;orthogonalLoop=1;jettySize=auto;html=1;entryX=0.5;entryY=0;entryDx=0;entryDy=0;" edge="1" parent="YQWz01tPMp9xfPWSl0EE-34" source="YQWz01tPMp9xfPWSl0EE-302" target="YQWz01tPMp9xfPWSl0EE-315">
          <mxGeometry relative="1" as="geometry">
            <Array as="points">
              <mxPoint x="2190" y="1017" />
            </Array>
          </mxGeometry>
        </mxCell>
        <mxCell id="YQWz01tPMp9xfPWSl0EE-302" value="20 &amp;gt;= 1" style="rhombus;whiteSpace=wrap;html=1;" vertex="1" parent="YQWz01tPMp9xfPWSl0EE-34">
          <mxGeometry x="2220" y="947" width="80" height="80" as="geometry" />
        </mxCell>
        <mxCell id="YQWz01tPMp9xfPWSl0EE-303" style="edgeStyle=orthogonalEdgeStyle;rounded=0;orthogonalLoop=1;jettySize=auto;html=1;entryX=0;entryY=0.5;entryDx=0;entryDy=0;" edge="1" parent="YQWz01tPMp9xfPWSl0EE-34" source="YQWz01tPMp9xfPWSl0EE-305" target="YQWz01tPMp9xfPWSl0EE-308">
          <mxGeometry relative="1" as="geometry" />
        </mxCell>
        <mxCell id="YQWz01tPMp9xfPWSl0EE-304" style="edgeStyle=orthogonalEdgeStyle;rounded=0;orthogonalLoop=1;jettySize=auto;html=1;entryX=0;entryY=0.5;entryDx=0;entryDy=0;" edge="1" parent="YQWz01tPMp9xfPWSl0EE-34" source="YQWz01tPMp9xfPWSl0EE-305" target="YQWz01tPMp9xfPWSl0EE-317">
          <mxGeometry relative="1" as="geometry">
            <Array as="points">
              <mxPoint x="2125" y="1212" />
            </Array>
          </mxGeometry>
        </mxCell>
        <mxCell id="YQWz01tPMp9xfPWSl0EE-305" value="&amp;gt;= 19" style="rhombus;whiteSpace=wrap;html=1;" vertex="1" parent="YQWz01tPMp9xfPWSl0EE-34">
          <mxGeometry x="2085" y="1098" width="80" height="80" as="geometry" />
        </mxCell>
        <mxCell id="YQWz01tPMp9xfPWSl0EE-306" style="edgeStyle=orthogonalEdgeStyle;rounded=0;orthogonalLoop=1;jettySize=auto;html=1;" edge="1" parent="YQWz01tPMp9xfPWSl0EE-34" source="YQWz01tPMp9xfPWSl0EE-308" target="YQWz01tPMp9xfPWSl0EE-286">
          <mxGeometry relative="1" as="geometry" />
        </mxCell>
        <mxCell id="YQWz01tPMp9xfPWSl0EE-307" style="edgeStyle=orthogonalEdgeStyle;rounded=0;orthogonalLoop=1;jettySize=auto;html=1;entryX=0.5;entryY=0;entryDx=0;entryDy=0;" edge="1" parent="YQWz01tPMp9xfPWSl0EE-34" source="YQWz01tPMp9xfPWSl0EE-308" target="YQWz01tPMp9xfPWSl0EE-317">
          <mxGeometry relative="1" as="geometry">
            <Array as="points">
              <mxPoint x="2180" y="1177" />
            </Array>
          </mxGeometry>
        </mxCell>
        <mxCell id="YQWz01tPMp9xfPWSl0EE-308" value="10 &amp;gt;= 1" style="rhombus;whiteSpace=wrap;html=1;" vertex="1" parent="YQWz01tPMp9xfPWSl0EE-34">
          <mxGeometry x="2220" y="1098" width="80" height="80" as="geometry" />
        </mxCell>
        <mxCell id="YQWz01tPMp9xfPWSl0EE-309" style="edgeStyle=orthogonalEdgeStyle;rounded=0;orthogonalLoop=1;jettySize=auto;html=1;entryX=0.5;entryY=0;entryDx=0;entryDy=0;" edge="1" parent="YQWz01tPMp9xfPWSl0EE-34" source="YQWz01tPMp9xfPWSl0EE-310" target="YQWz01tPMp9xfPWSl0EE-252">
          <mxGeometry relative="1" as="geometry">
            <Array as="points">
              <mxPoint x="2175" y="607" />
              <mxPoint x="2125" y="607" />
            </Array>
          </mxGeometry>
        </mxCell>
        <mxCell id="YQWz01tPMp9xfPWSl0EE-310" value="" style="ellipse;whiteSpace=wrap;html=1;aspect=fixed;" vertex="1" parent="YQWz01tPMp9xfPWSl0EE-34">
          <mxGeometry x="2165" y="576" width="20" height="20" as="geometry" />
        </mxCell>
        <mxCell id="YQWz01tPMp9xfPWSl0EE-311" style="edgeStyle=orthogonalEdgeStyle;rounded=0;orthogonalLoop=1;jettySize=auto;html=1;entryX=0.5;entryY=0;entryDx=0;entryDy=0;" edge="1" parent="YQWz01tPMp9xfPWSl0EE-34" source="YQWz01tPMp9xfPWSl0EE-312" target="YQWz01tPMp9xfPWSl0EE-255">
          <mxGeometry relative="1" as="geometry">
            <Array as="points">
              <mxPoint x="2175" y="767" />
              <mxPoint x="2125" y="767" />
            </Array>
          </mxGeometry>
        </mxCell>
        <mxCell id="YQWz01tPMp9xfPWSl0EE-312" value="" style="ellipse;whiteSpace=wrap;html=1;aspect=fixed;" vertex="1" parent="YQWz01tPMp9xfPWSl0EE-34">
          <mxGeometry x="2165" y="737" width="20" height="20" as="geometry" />
        </mxCell>
        <mxCell id="YQWz01tPMp9xfPWSl0EE-313" style="edgeStyle=orthogonalEdgeStyle;rounded=0;orthogonalLoop=1;jettySize=auto;html=1;" edge="1" parent="YQWz01tPMp9xfPWSl0EE-34" source="YQWz01tPMp9xfPWSl0EE-314" target="YQWz01tPMp9xfPWSl0EE-299">
          <mxGeometry relative="1" as="geometry">
            <Array as="points">
              <mxPoint x="2175" y="917" />
              <mxPoint x="2125" y="917" />
            </Array>
          </mxGeometry>
        </mxCell>
        <mxCell id="YQWz01tPMp9xfPWSl0EE-314" value="" style="ellipse;whiteSpace=wrap;html=1;aspect=fixed;" vertex="1" parent="YQWz01tPMp9xfPWSl0EE-34">
          <mxGeometry x="2165" y="894" width="20" height="20" as="geometry" />
        </mxCell>
        <mxCell id="YQWz01tPMp9xfPWSl0EE-315" value="" style="ellipse;whiteSpace=wrap;html=1;aspect=fixed;" vertex="1" parent="YQWz01tPMp9xfPWSl0EE-34">
          <mxGeometry x="2180" y="1034" width="20" height="20" as="geometry" />
        </mxCell>
        <mxCell id="YQWz01tPMp9xfPWSl0EE-316" style="edgeStyle=orthogonalEdgeStyle;rounded=0;orthogonalLoop=1;jettySize=auto;html=1;entryX=0.5;entryY=0;entryDx=0;entryDy=0;" edge="1" parent="YQWz01tPMp9xfPWSl0EE-34" source="YQWz01tPMp9xfPWSl0EE-317" target="YQWz01tPMp9xfPWSl0EE-265">
          <mxGeometry relative="1" as="geometry">
            <Array as="points">
              <mxPoint x="2180" y="1247" />
              <mxPoint x="2123" y="1247" />
            </Array>
          </mxGeometry>
        </mxCell>
        <mxCell id="YQWz01tPMp9xfPWSl0EE-317" value="" style="ellipse;whiteSpace=wrap;html=1;aspect=fixed;" vertex="1" parent="YQWz01tPMp9xfPWSl0EE-34">
          <mxGeometry x="2170" y="1202" width="20" height="20" as="geometry" />
        </mxCell>
        <mxCell id="YQWz01tPMp9xfPWSl0EE-318" style="edgeStyle=orthogonalEdgeStyle;rounded=0;orthogonalLoop=1;jettySize=auto;html=1;entryX=0.5;entryY=0;entryDx=0;entryDy=0;" edge="1" parent="YQWz01tPMp9xfPWSl0EE-34" source="YQWz01tPMp9xfPWSl0EE-319" target="YQWz01tPMp9xfPWSl0EE-322">
          <mxGeometry relative="1" as="geometry">
            <Array as="points">
              <mxPoint x="2175" y="1397" />
              <mxPoint x="2125" y="1397" />
            </Array>
          </mxGeometry>
        </mxCell>
        <mxCell id="YQWz01tPMp9xfPWSl0EE-319" value="" style="ellipse;whiteSpace=wrap;html=1;aspect=fixed;" vertex="1" parent="YQWz01tPMp9xfPWSl0EE-34">
          <mxGeometry x="2165" y="1357" width="20" height="20" as="geometry" />
        </mxCell>
        <mxCell id="YQWz01tPMp9xfPWSl0EE-320" style="edgeStyle=orthogonalEdgeStyle;rounded=0;orthogonalLoop=1;jettySize=auto;html=1;entryX=0.514;entryY=0.074;entryDx=0;entryDy=0;entryPerimeter=0;" edge="1" parent="YQWz01tPMp9xfPWSl0EE-34" source="YQWz01tPMp9xfPWSl0EE-315" target="YQWz01tPMp9xfPWSl0EE-305">
          <mxGeometry relative="1" as="geometry">
            <Array as="points">
              <mxPoint x="2190" y="1077" />
              <mxPoint x="2126" y="1077" />
            </Array>
          </mxGeometry>
        </mxCell>
        <mxCell id="YQWz01tPMp9xfPWSl0EE-321" style="edgeStyle=orthogonalEdgeStyle;rounded=0;orthogonalLoop=1;jettySize=auto;html=1;" edge="1" parent="YQWz01tPMp9xfPWSl0EE-34" source="YQWz01tPMp9xfPWSl0EE-322" target="YQWz01tPMp9xfPWSl0EE-323">
          <mxGeometry relative="1" as="geometry" />
        </mxCell>
        <mxCell id="YQWz01tPMp9xfPWSl0EE-322" value="&amp;gt;= 4" style="rounded=0;whiteSpace=wrap;html=1;" vertex="1" parent="YQWz01tPMp9xfPWSl0EE-34">
          <mxGeometry x="2096.25" y="1437" width="57.5" height="34" as="geometry" />
        </mxCell>
        <mxCell id="YQWz01tPMp9xfPWSl0EE-323" value="1 &amp;gt;= 1" style="rounded=0;whiteSpace=wrap;html=1;" vertex="1" parent="YQWz01tPMp9xfPWSl0EE-34">
          <mxGeometry x="2231.25" y="1438" width="57.5" height="34" as="geometry" />
        </mxCell>
        <mxCell id="YQWz01tPMp9xfPWSl0EE-325" style="edgeStyle=orthogonalEdgeStyle;rounded=0;orthogonalLoop=1;jettySize=auto;html=1;entryX=0.5;entryY=0;entryDx=0;entryDy=0;" edge="1" parent="YQWz01tPMp9xfPWSl0EE-34" source="YQWz01tPMp9xfPWSl0EE-326" target="YQWz01tPMp9xfPWSl0EE-329">
          <mxGeometry relative="1" as="geometry" />
        </mxCell>
        <mxCell id="YQWz01tPMp9xfPWSl0EE-326" value="" style="ellipse;whiteSpace=wrap;html=1;aspect=fixed;" vertex="1" parent="YQWz01tPMp9xfPWSl0EE-34">
          <mxGeometry x="1880" y="827" width="20" height="20" as="geometry" />
        </mxCell>
        <mxCell id="YQWz01tPMp9xfPWSl0EE-327" style="edgeStyle=orthogonalEdgeStyle;rounded=0;orthogonalLoop=1;jettySize=auto;html=1;entryX=0.5;entryY=0;entryDx=0;entryDy=0;" edge="1" parent="YQWz01tPMp9xfPWSl0EE-34" source="YQWz01tPMp9xfPWSl0EE-241" target="YQWz01tPMp9xfPWSl0EE-326">
          <mxGeometry relative="1" as="geometry" />
        </mxCell>
        <mxCell id="YQWz01tPMp9xfPWSl0EE-328" style="edgeStyle=orthogonalEdgeStyle;rounded=0;orthogonalLoop=1;jettySize=auto;html=1;" edge="1" parent="YQWz01tPMp9xfPWSl0EE-34" source="YQWz01tPMp9xfPWSl0EE-329" target="YQWz01tPMp9xfPWSl0EE-331">
          <mxGeometry relative="1" as="geometry" />
        </mxCell>
        <mxCell id="YQWz01tPMp9xfPWSl0EE-329" value="จำนวนเงินในตู้ - จำนวนเงินที่ทอน" style="rounded=0;whiteSpace=wrap;html=1;" vertex="1" parent="YQWz01tPMp9xfPWSl0EE-34">
          <mxGeometry x="1795" y="886" width="190" height="40" as="geometry" />
        </mxCell>
        <mxCell id="YQWz01tPMp9xfPWSl0EE-330" style="edgeStyle=orthogonalEdgeStyle;rounded=0;orthogonalLoop=1;jettySize=auto;html=1;entryX=1;entryY=0.5;entryDx=0;entryDy=0;" edge="1" parent="YQWz01tPMp9xfPWSl0EE-34" source="YQWz01tPMp9xfPWSl0EE-331" target="YQWz01tPMp9xfPWSl0EE-339">
          <mxGeometry relative="1" as="geometry">
            <Array as="points">
              <mxPoint x="1890" y="1349" />
            </Array>
          </mxGeometry>
        </mxCell>
        <mxCell id="YQWz01tPMp9xfPWSl0EE-331" value="จำนวนเงินในตู้ + เงินที่ลูกค้าใส่" style="rounded=0;whiteSpace=wrap;html=1;" vertex="1" parent="YQWz01tPMp9xfPWSl0EE-34">
          <mxGeometry x="1795" y="967" width="190" height="40" as="geometry" />
        </mxCell>
        <mxCell id="YQWz01tPMp9xfPWSl0EE-336" style="edgeStyle=orthogonalEdgeStyle;rounded=0;orthogonalLoop=1;jettySize=auto;html=1;" edge="1" parent="YQWz01tPMp9xfPWSl0EE-34" source="YQWz01tPMp9xfPWSl0EE-337" target="YQWz01tPMp9xfPWSl0EE-93">
          <mxGeometry relative="1" as="geometry" />
        </mxCell>
        <mxCell id="YQWz01tPMp9xfPWSl0EE-337" value="a + ราคาสินค้า" style="rounded=0;whiteSpace=wrap;html=1;" vertex="1" parent="YQWz01tPMp9xfPWSl0EE-34">
          <mxGeometry x="1640.5" y="1389" width="95" height="40" as="geometry" />
        </mxCell>
        <mxCell id="YQWz01tPMp9xfPWSl0EE-338" style="edgeStyle=orthogonalEdgeStyle;rounded=0;orthogonalLoop=1;jettySize=auto;html=1;entryX=0.5;entryY=0;entryDx=0;entryDy=0;" edge="1" parent="YQWz01tPMp9xfPWSl0EE-34" source="YQWz01tPMp9xfPWSl0EE-339" target="YQWz01tPMp9xfPWSl0EE-337">
          <mxGeometry relative="1" as="geometry" />
        </mxCell>
        <mxCell id="YQWz01tPMp9xfPWSl0EE-339" value="" style="ellipse;whiteSpace=wrap;html=1;aspect=fixed;" vertex="1" parent="YQWz01tPMp9xfPWSl0EE-34">
          <mxGeometry x="1678" y="1339" width="20" height="20" as="geometry" />
        </mxCell>
        <mxCell id="YQWz01tPMp9xfPWSl0EE-340" value="&lt;font face=&quot;Sarabun&quot;&gt;สิ้นสุด&lt;/font&gt;" style="ellipse;whiteSpace=wrap;html=1;" vertex="1" parent="YQWz01tPMp9xfPWSl0EE-34">
          <mxGeometry x="1623" y="1609" width="130" height="30" as="geometry" />
        </mxCell>
        <mxCell id="YQWz01tPMp9xfPWSl0EE-345" value="จำนวนเงินรวม" style="rounded=0;whiteSpace=wrap;html=1;" vertex="1" parent="YQWz01tPMp9xfPWSl0EE-34">
          <mxGeometry x="440" y="477" width="96.25" height="30" as="geometry" />
        </mxCell>
        <mxCell id="YQWz01tPMp9xfPWSl0EE-347" value="ยอดเงินคำสั่งซื้อ" style="rounded=0;whiteSpace=wrap;html=1;" vertex="1" parent="YQWz01tPMp9xfPWSl0EE-34">
          <mxGeometry x="440" y="530" width="96.25" height="30" as="geometry" />
        </mxCell>
        <mxCell id="YQWz01tPMp9xfPWSl0EE-348" value="เก็บค่าไว้เช็คว่าสั่งซื้อหรือไม่" style="rounded=0;whiteSpace=wrap;html=1;" vertex="1" parent="YQWz01tPMp9xfPWSl0EE-34">
          <mxGeometry x="440" y="587" width="96.25" height="30" as="geometry" />
        </mxCell>
        <mxCell id="YQWz01tPMp9xfPWSl0EE-37" value="&lt;font data-font-src=&quot;https://fonts.googleapis.com/css?family=Sarabun&quot; face=&quot;Sarabun&quot;&gt;โจทย์ปัญหา&lt;/font&gt;" style="swimlane;whiteSpace=wrap;html=1;" vertex="1" parent="1">
          <mxGeometry x="-720" y="320" width="640" height="240" as="geometry" />
        </mxCell>
        <mxCell id="YQWz01tPMp9xfPWSl0EE-38" value="&lt;font data-font-src=&quot;https://fonts.googleapis.com/css?family=Sarabun&quot; face=&quot;Sarabun&quot; style=&quot;font-size: 14px;&quot;&gt;จงเขียน Flowchart เพื่อแสดงขั้นตอนการทำงาน ของเครื่องขายน้ำอัตโนมัติที่ชื่อว่า &quot;ตะพาบลอย&quot;&lt;br&gt;โดยจะต้องมีสินค้าดังนี้&lt;br&gt;&lt;u&gt;ประเภทน้ำ&lt;span style=&quot;white-space: pre;&quot;&gt;&#x9;&lt;/span&gt;&lt;span style=&quot;white-space: pre;&quot;&gt;&#x9;&lt;/span&gt;&lt;span style=&quot;white-space: pre;&quot;&gt;&#x9;&lt;/span&gt;&lt;span style=&quot;white-space: pre;&quot;&gt;&#x9;&lt;/span&gt;&lt;span style=&quot;white-space: pre;&quot;&gt;&#x9;&lt;/span&gt;&lt;span style=&quot;white-space: pre;&quot;&gt;&#x9;&lt;span style=&quot;white-space: pre;&quot;&gt;&#x9;&lt;/span&gt;ข&lt;/span&gt;นม&lt;/u&gt;&lt;br&gt;&lt;span style=&quot;white-space: pre;&quot;&gt;&#x9;&lt;/span&gt;- โค้ก กระป๋องละ 10 บาท&lt;span style=&quot;white-space: pre;&quot;&gt;&#x9;&lt;/span&gt;&lt;span style=&quot;white-space: pre;&quot;&gt;&#x9;&lt;/span&gt;&lt;span style=&quot;white-space: pre;&quot;&gt;&#x9;&lt;/span&gt;&lt;span style=&quot;white-space: pre;&quot;&gt;&#x9;&lt;/span&gt;- เมล็ดทานตะวัน 13 บาท&lt;br&gt;&lt;span style=&quot;white-space: pre;&quot;&gt;&#x9;&lt;/span&gt;- น้ำเขียว กระป๋องละ 12 บาท&lt;span style=&quot;white-space: pre;&quot;&gt;&#x9;&lt;/span&gt;&lt;span style=&quot;white-space: pre;&quot;&gt;&#x9;&lt;/span&gt;&lt;span style=&quot;white-space: pre;&quot;&gt;&#x9;&lt;/span&gt;- ถั่วแปบ 20 บาท&lt;br&gt;&lt;span style=&quot;white-space: pre;&quot;&gt;&#x9;&lt;/span&gt;- อเมริกาโน่ 30 บาท&lt;span style=&quot;white-space: pre;&quot;&gt;&#x9;&lt;/span&gt;&lt;span style=&quot;white-space: pre;&quot;&gt;&#x9;&lt;/span&gt;&lt;span style=&quot;white-space: pre;&quot;&gt;&#x9;&lt;/span&gt;&lt;span style=&quot;white-space: pre;&quot;&gt;&#x9;&lt;/span&gt;&lt;span style=&quot;white-space: pre;&quot;&gt;&#x9;&lt;/span&gt;- จิ้นส้มหมก 15 บาท&lt;br&gt;&lt;span style=&quot;white-space: pre;&quot;&gt;&#x9;&lt;/span&gt;- ลาเต้ หวานเจี๊ยบ 35 บาท&lt;span style=&quot;white-space: pre;&quot;&gt;&#x9;&lt;/span&gt;&lt;br&gt;&lt;br&gt;&lt;u&gt;สิ่งที่ระบบควรจะทำได้&lt;/u&gt;&lt;br&gt;&lt;span style=&quot;white-space: pre;&quot;&gt;&#x9;&lt;/span&gt;- ลูกค้าเลือกสินค้า, ระบบจะต้องรวมยอดขาย และรวมรายการสินค้าทั้งหมดที่ลูกค้าเลือก&lt;br&gt;&lt;span style=&quot;white-space: pre;&quot;&gt;&#x9;&lt;/span&gt;- สรุปยอดว่าเหลือเงินในตู้อีกเท่าไหร่ เหลือเหรียญอะไรบ้าง? ธนบัตรอะไรบ้าง? อย่างละเท่าไหร่?&lt;br&gt;&lt;br&gt;&lt;br&gt;&lt;/font&gt;" style="text;html=1;align=left;verticalAlign=middle;resizable=0;points=[];autosize=1;strokeColor=none;fillColor=none;fontSize=14;" vertex="1" parent="YQWz01tPMp9xfPWSl0EE-37">
          <mxGeometry x="25" y="30" width="580" height="240" as="geometry" />
        </mxCell>
        <mxCell id="YQWz01tPMp9xfPWSl0EE-346" value="Text" style="text;html=1;align=center;verticalAlign=middle;whiteSpace=wrap;rounded=0;" vertex="1" parent="1">
          <mxGeometry x="60" y="1300" width="60" height="30" as="geometry" />
        </mxCell>
      </root>
    </mxGraphModel>
  </diagram>
</mxfile>
